  0
SECTION
  2
HEADER
  9
$ACADVER
  1
AC1014
  9
$HANDSEED
  5
FFFF
  9
$INSUNITS
 70
     0
  9
$MEASUREMENT
 70
     1
  0
ENDSEC
  0
SECTION
  2
TABLES
  0
TABLE
  2
VPORT
  5
8
330
0
100
AcDbSymbolTable
 70
     4
  0
VPORT
  5
2E
330
8
100
AcDbSymbolTableRecord
100
AcDbViewportTableRecord
  2
*ACTIVE
 70
     0
 10
0.0
 20
0.0
 11
1.0
 21
1.0
 12
210.0
 22
148.5
 13
0.0
 23
0.0
 14
10.0
 24
10.0
 15
10.0
 25
10.0
 16
0.0
 26
0.0
 36
1.0
 17
0.0
 27
0.0
 37
0.0
 40
341.0
 41
1.24
 42
50.0
 43
0.0
 44
0.0
 50
0.0
 51
0.0
 71
     0
 72
   100
 73
     1
 74
     3
 75
     0
 76
     0
 77
     0
 78
     0
  0
ENDTAB
  0
TABLE
  2
LTYPE
  5
5
330
0
100
AcDbSymbolTable
 70
     1
  0
LTYPE
  5
14
330
5
100
AcDbSymbolTableRecord
100
AcDbLinetypeTableRecord
  2
BYBLOCK
 70
     0
  3

 72
    65
 73
     0
 40
0.0
  0
LTYPE
  5
15
330
5
100
AcDbSymbolTableRecord
100
AcDbLinetypeTableRecord
  2
BYLAYER
 70
     0
  3

 72
    65
 73
     0
 40
0.0
  0
LTYPE
  5
16
330
5
100
AcDbSymbolTableRecord
100
AcDbLinetypeTableRecord
  2
CONTINUOUS
 70
     0
  3
Solid line
 72
    65
 73
     0
 40
0.0
  0
ENDTAB
  0
TABLE
  2
LAYER
  5
2
100
AcDbSymbolTable
 70
2
  0
LAYER
  5
50
100
AcDbSymbolTableRecord
100
AcDbLayerTableRecord
  2
0
 70
0
  6
CONTINUOUS
  0
LAYER
  5
51
100
AcDbSymbolTableRecord
100
AcDbLayerTableRecord
  2
Image
 70
0
  6
CONTINUOUS
  0
ENDTAB
  0
TABLE
  2
STYLE
  5
3
330
0
100
AcDbSymbolTable
 70
     1
  0
STYLE
  5
11
330
3
100
AcDbSymbolTableRecord
100
AcDbTextStyleTableRecord
  2
STANDARD
 70
     0
 40
0.0
 41
1.0
 50
0.0
 71
     0
 42
2.5
  3
txt
  4

  0
ENDTAB
  0
TABLE
  2
VIEW
  5
6
330
0
100
AcDbSymbolTable
 70
     0
  0
ENDTAB
  0
TABLE
  2
UCS
  5
7
330
0
100
AcDbSymbolTable
 70
     0
  0
ENDTAB
  0
TABLE
  2
APPID
  5
9
330
0
100
AcDbSymbolTable
 70
     2
  0
APPID
  5
12
330
9
100
AcDbSymbolTableRecord
100
AcDbRegAppTableRecord
  2
ACAD
 70
     0
  0
ENDTAB
  0
TABLE
  2
DIMSTYLE
  5
A
330
0
100
AcDbSymbolTable
 70
     1
  0
DIMSTYLE
105
27
330
A
100
AcDbSymbolTableRecord
100
AcDbDimStyleTableRecord
  2
ISO-25
 70
     0
  3

  4

  5

  6

  7

 40
1.0
 41
2.5
 42
0.625
 43
3.75
 44
1.25
 45
0.0
 46
0.0
 47
0.0
 48
0.0
140
2.5
141
2.5
142
0.0
143
0.03937007874016
144
1.0
145
0.0
146
1.0
147
0.625
 71
     0
 72
     0
 73
     0
 74
     0
 75
     0
 76
     0
 77
     1
 78
     8
170
     0
171
     3
172
     1
173
     0
174
     0
175
     0
176
     0
177
     0
178
     0
270
     2
271
     2
272
     2
273
     2
274
     3
340
11
275
     0
280
     0
281
     0
282
     0
283
     0
284
     8
285
     0
286
     0
287
     3
288
     0
  0
ENDTAB
  0
TABLE
  2
BLOCK_RECORD
  5
1
330
0
100
AcDbSymbolTable
 70
     1
  0
BLOCK_RECORD
  5
1F
330
1
100
AcDbSymbolTableRecord
100
AcDbBlockTableRecord
  2
*MODEL_SPACE
  0
BLOCK_RECORD
  5
1B
330
1
100
AcDbSymbolTableRecord
100
AcDbBlockTableRecord
  2
*PAPER_SPACE
  0
ENDTAB
  0
ENDSEC
  0
SECTION
  2
BLOCKS
  0
BLOCK
  5
20
330
1F
100
AcDbEntity
  8
0
100
AcDbBlockBegin
  2
*MODEL_SPACE
 70
     0
 10
0.0
 20
0.0
 30
0.0
  3
*MODEL_SPACE
  1

  0
ENDBLK
  5
21
330
1F
100
AcDbEntity
  8
0
100
AcDbBlockEnd
  0
BLOCK
  5
1C
330
1B
100
AcDbEntity
 67
     1
  8
0
100
AcDbBlockBegin
  2
*PAPER_SPACE
  1

  0
ENDBLK
  5
1D
330
1B
100
AcDbEntity
 67
     1
  8
0
100
AcDbBlockEnd
  0
ENDSEC
  0
SECTION
  2
ENTITIES
  0
SPLINE
  5
100
100
AcDbEntity
  8
Image
 62
7
100
AcDbSpline
 70
8
 71
3
 72
8
 73
4
 74
0
 40
0
 40
0
 40
0
 40
0
 40
1
 40
1
 40
1
 40
1
 10
-226.716470
 20
-1438.036700
 30
0.0
 10
-239.830170
 20
-1436.563300
 30
0.0
 10
-250.519070
 20
-1430.860200
 30
0.0
 10
-257.363870
 20
-1421.684900
 30
0.0
  0
SPLINE
  5
101
100
AcDbEntity
  8
Image
 62
7
100
AcDbSpline
 70
8
 71
3
 72
8
 73
4
 74
0
 40
0
 40
0
 40
0
 40
0
 40
1
 40
1
 40
1
 40
1
 10
-257.363870
 20
-1421.684900
 30
0.0
 10
-262.185270
 20
-1415.222000
 30
0.0
 10
-271.340770
 20
-1397.538000
 30
0.0
 10
-278.382170
 20
-1381.087900
 30
0.0
  0
SPLINE
  5
102
100
AcDbEntity
  8
Image
 62
7
100
AcDbSpline
 70
8
 71
3
 72
8
 73
4
 74
0
 40
0
 40
0
 40
0
 40
0
 40
1
 40
1
 40
1
 40
1
 10
-278.382170
 20
-1381.087900
 30
0.0
 10
-287.029370
 20
-1360.886400
 30
0.0
 10
-297.855370
 20
-1329.353100
 30
0.0
 10
-303.046270
 20
-1309.247900
 30
0.0
  0
SPLINE
  5
103
100
AcDbEntity
  8
Image
 62
7
100
AcDbSpline
 70
8
 71
3
 72
8
 73
4
 74
0
 40
0
 40
0
 40
0
 40
0
 40
1
 40
1
 40
1
 40
1
 10
-303.046270
 20
-1309.247900
 30
0.0
 10
-312.211170
 20
-1273.750300
 30
0.0
 10
-326.984970
 20
-1187.796300
 30
0.0
 10
-351.365470
 20
-1028.127900
 30
0.0
  0
SPLINE
  5
104
100
AcDbEntity
  8
Image
 62
7
100
AcDbSpline
 70
8
 71
3
 72
8
 73
4
 74
0
 40
0
 40
0
 40
0
 40
0
 40
1
 40
1
 40
1
 40
1
 10
-351.365470
 20
-1028.127900
 30
0.0
 10
-367.173070
 20
-924.603100
 30
0.0
 10
-369.334070
 20
-909.075600
 30
0.0
 10
-379.979670
 20
-822.527900
 30
0.0
  0
SPLINE
  5
105
100
AcDbEntity
  8
Image
 62
7
100
AcDbSpline
 70
8
 71
3
 72
8
 73
4
 74
0
 40
0
 40
0
 40
0
 40
0
 40
1
 40
1
 40
1
 40
1
 10
-379.979670
 20
-822.527900
 30
0.0
 10
-423.597570
 20
-467.919300
 30
0.0
 10
-450.169470
 20
-138.774900
 30
0.0
 10
-457.428970
 20
136.832100
 30
0.0
  0
SPLINE
  5
106
100
AcDbEntity
  8
Image
 62
7
100
AcDbSpline
 70
8
 71
3
 72
8
 73
4
 74
0
 40
0
 40
0
 40
0
 40
0
 40
1
 40
1
 40
1
 40
1
 10
-457.428970
 20
136.832100
 30
0.0
 10
-458.959970
 20
194.956700
 30
0.0
 10
-459.327970
 20
223.815300
 30
0.0
 10
-459.334970
 20
286.272100
 30
0.0
  0
SPLINE
  5
107
100
AcDbEntity
  8
Image
 62
7
100
AcDbSpline
 70
8
 71
3
 72
8
 73
4
 74
0
 40
0
 40
0
 40
0
 40
0
 40
1
 40
1
 40
1
 40
1
 10
-459.334970
 20
286.272100
 30
0.0
 10
-459.344970
 20
340.759000
 30
0.0
 10
-459.072970
 20
367.020000
 30
0.0
 10
-458.209670
 20
396.512100
 30
0.0
  0
SPLINE
  5
108
100
AcDbEntity
  8
Image
 62
7
100
AcDbSpline
 70
8
 71
3
 72
8
 73
4
 74
0
 40
0
 40
0
 40
0
 40
0
 40
1
 40
1
 40
1
 40
1
 10
-458.209670
 20
396.512100
 30
0.0
 10
-458.037070
 20
402.408100
 30
0.0
 10
-457.764070
 20
422.280100
 30
0.0
 10
-457.602870
 20
440.672100
 30
0.0
  0
SPLINE
  5
109
100
AcDbEntity
  8
Image
 62
7
100
AcDbSpline
 70
8
 71
3
 72
8
 73
4
 74
0
 40
0
 40
0
 40
0
 40
0
 40
1
 40
1
 40
1
 40
1
 10
-457.602870
 20
440.672100
 30
0.0
 10
-457.326770
 20
472.195000
 30
0.0
 10
-457.093270
 20
484.041200
 30
0.0
 10
-456.313070
 20
506.112100
 30
0.0
  0
SPLINE
  5
10a
100
AcDbEntity
  8
Image
 62
7
100
AcDbSpline
 70
8
 71
3
 72
8
 73
4
 74
0
 40
0
 40
0
 40
0
 40
0
 40
1
 40
1
 40
1
 40
1
 10
-456.313070
 20
506.112100
 30
0.0
 10
-450.627770
 20
666.945400
 30
0.0
 10
-429.019770
 20
822.576400
 30
0.0
 10
-394.400870
 20
952.032100
 30
0.0
  0
SPLINE
  5
10b
100
AcDbEntity
  8
Image
 62
7
100
AcDbSpline
 70
8
 71
3
 72
8
 73
4
 74
0
 40
0
 40
0
 40
0
 40
0
 40
1
 40
1
 40
1
 40
1
 10
-394.400870
 20
952.032100
 30
0.0
 10
-389.237270
 20
971.341400
 30
0.0
 10
-382.693370
 20
993.927700
 30
0.0
 10
-377.789170
 20
1009.368200
 30
0.0
  0
SPLINE
  5
10c
100
AcDbEntity
  8
Image
 62
7
100
AcDbSpline
 70
8
 71
3
 72
8
 73
4
 74
0
 40
0
 40
0
 40
0
 40
0
 40
1
 40
1
 40
1
 40
1
 10
-377.789170
 20
1009.368200
 30
0.0
 10
-376.652970
 20
1012.945300
 30
0.0
 10
-374.696070
 20
1019.256100
 30
0.0
 10
-373.440470
 20
1023.392100
 30
0.0
  0
SPLINE
  5
10d
100
AcDbEntity
  8
Image
 62
7
100
AcDbSpline
 70
8
 71
3
 72
8
 73
4
 74
0
 40
0
 40
0
 40
0
 40
0
 40
1
 40
1
 40
1
 40
1
 10
-373.440470
 20
1023.392100
 30
0.0
 10
-357.980670
 20
1074.316400
 30
0.0
 10
-339.867470
 20
1120.517100
 30
0.0
 10
-318.321070
 20
1163.982300
 30
0.0
  0
SPLINE
  5
10e
100
AcDbEntity
  8
Image
 62
7
100
AcDbSpline
 70
8
 71
3
 72
8
 73
4
 74
0
 40
0
 40
0
 40
0
 40
0
 40
1
 40
1
 40
1
 40
1
 10
-318.321070
 20
1163.982300
 30
0.0
 10
-303.530670
 20
1193.818800
 30
0.0
 10
-286.049370
 20
1223.675400
 30
0.0
 10
-271.825870
 20
1243.392100
 30
0.0
  0
SPLINE
  5
10f
100
AcDbEntity
  8
Image
 62
7
100
AcDbSpline
 70
8
 71
3
 72
8
 73
4
 74
0
 40
0
 40
0
 40
0
 40
0
 40
1
 40
1
 40
1
 40
1
 10
-271.825870
 20
1243.392100
 30
0.0
 10
-269.921470
 20
1246.032100
 30
0.0
 10
-265.823470
 20
1252.008100
 30
0.0
 10
-262.719270
 20
1256.672100
 30
0.0
  0
SPLINE
  5
110
100
AcDbEntity
  8
Image
 62
7
100
AcDbSpline
 70
8
 71
3
 72
8
 73
4
 74
0
 40
0
 40
0
 40
0
 40
0
 40
1
 40
1
 40
1
 40
1
 10
-262.719270
 20
1256.672100
 30
0.0
 10
-242.086070
 20
1287.673600
 30
0.0
 10
-221.551470
 20
1312.633700
 30
0.0
 10
-194.262870
 20
1339.881500
 30
0.0
  0
SPLINE
  5
111
100
AcDbEntity
  8
Image
 62
7
100
AcDbSpline
 70
8
 71
3
 72
8
 73
4
 74
0
 40
0
 40
0
 40
0
 40
0
 40
1
 40
1
 40
1
 40
1
 10
-194.262870
 20
1339.881500
 30
0.0
 10
-170.962270
 20
1363.147400
 30
0.0
 10
-149.221870
 20
1381.350200
 30
0.0
 10
-126.460570
 20
1396.650900
 30
0.0
  0
SPLINE
  5
112
100
AcDbEntity
  8
Image
 62
7
100
AcDbSpline
 70
8
 71
3
 72
8
 73
4
 74
0
 40
0
 40
0
 40
0
 40
0
 40
1
 40
1
 40
1
 40
1
 10
-126.460570
 20
1396.650900
 30
0.0
 10
-109.264870
 20
1408.210300
 30
0.0
 10
-98.406822
 20
1414.166300
 30
0.0
 10
-83.676922
 20
1420.118800
 30
0.0
  0
SPLINE
  5
113
100
AcDbEntity
  8
Image
 62
7
100
AcDbSpline
 70
8
 71
3
 72
8
 73
4
 74
0
 40
0
 40
0
 40
0
 40
0
 40
1
 40
1
 40
1
 40
1
 10
-83.676922
 20
1420.118800
 30
0.0
 10
-56.827722
 20
1430.969100
 30
0.0
 10
-39.128622
 20
1435.650100
 30
0.0
 10
-16.636522
 20
1437.849600
 30
0.0
  0
SPLINE
  5
114
100
AcDbEntity
  8
Image
 62
7
100
AcDbSpline
 70
8
 71
3
 72
8
 73
4
 74
0
 40
0
 40
0
 40
0
 40
0
 40
1
 40
1
 40
1
 40
1
 10
-16.636522
 20
1437.849600
 30
0.0
 10
-10.822319
 20
1438.418200
 30
0.0
 10
10.829278
 20
1438.418200
 30
0.0
 10
16.643478
 20
1437.849600
 30
0.0
  0
SPLINE
  5
115
100
AcDbEntity
  8
Image
 62
7
100
AcDbSpline
 70
8
 71
3
 72
8
 73
4
 74
0
 40
0
 40
0
 40
0
 40
0
 40
1
 40
1
 40
1
 40
1
 10
16.643478
 20
1437.849600
 30
0.0
 10
39.135578
 20
1435.650100
 30
0.0
 10
56.834678
 20
1430.969100
 30
0.0
 10
83.683883
 20
1420.118800
 30
0.0
  0
SPLINE
  5
116
100
AcDbEntity
  8
Image
 62
7
100
AcDbSpline
 70
8
 71
3
 72
8
 73
4
 74
0
 40
0
 40
0
 40
0
 40
0
 40
1
 40
1
 40
1
 40
1
 10
83.683883
 20
1420.118800
 30
0.0
 10
98.413796
 20
1414.166300
 30
0.0
 10
109.271930
 20
1408.210300
 30
0.0
 10
126.467630
 20
1396.650900
 30
0.0
  0
SPLINE
  5
117
100
AcDbEntity
  8
Image
 62
7
100
AcDbSpline
 70
8
 71
3
 72
8
 73
4
 74
0
 40
0
 40
0
 40
0
 40
0
 40
1
 40
1
 40
1
 40
1
 10
126.467630
 20
1396.650900
 30
0.0
 10
148.070830
 20
1382.128700
 30
0.0
 10
170.054330
 20
1363.876100
 30
0.0
 10
191.961730
 20
1342.272100
 30
0.0
  0
SPLINE
  5
118
100
AcDbEntity
  8
Image
 62
7
100
AcDbSpline
 70
8
 71
3
 72
8
 73
4
 74
0
 40
0
 40
0
 40
0
 40
0
 40
1
 40
1
 40
1
 40
1
 10
191.961730
 20
1342.272100
 30
0.0
 10
219.396030
 20
1315.217700
 30
0.0
 10
241.790130
 20
1288.128900
 30
0.0
 10
262.726330
 20
1256.672100
 30
0.0
  0
SPLINE
  5
119
100
AcDbEntity
  8
Image
 62
7
100
AcDbSpline
 70
8
 71
3
 72
8
 73
4
 74
0
 40
0
 40
0
 40
0
 40
0
 40
1
 40
1
 40
1
 40
1
 10
262.726330
 20
1256.672100
 30
0.0
 10
265.830530
 20
1252.008100
 30
0.0
 10
269.928520
 20
1246.032100
 30
0.0
 10
271.832920
 20
1243.392100
 30
0.0
  0
SPLINE
  5
11a
100
AcDbEntity
  8
Image
 62
7
100
AcDbSpline
 70
8
 71
3
 72
8
 73
4
 74
0
 40
0
 40
0
 40
0
 40
0
 40
1
 40
1
 40
1
 40
1
 10
271.832920
 20
1243.392100
 30
0.0
 10
286.012820
 20
1223.735800
 30
0.0
 10
303.289420
 20
1194.255000
 30
0.0
 10
318.058720
 20
1164.512100
 30
0.0
  0
SPLINE
  5
11b
100
AcDbEntity
  8
Image
 62
7
100
AcDbSpline
 70
8
 71
3
 72
8
 73
4
 74
0
 40
0
 40
0
 40
0
 40
0
 40
1
 40
1
 40
1
 40
1
 10
318.058720
 20
1164.512100
 30
0.0
 10
339.784320
 20
1120.760300
 30
0.0
 10
357.869520
 20
1074.682000
 30
0.0
 10
373.446520
 20
1023.392100
 30
0.0
  0
SPLINE
  5
11c
100
AcDbEntity
  8
Image
 62
7
100
AcDbSpline
 70
8
 71
3
 72
8
 73
4
 74
0
 40
0
 40
0
 40
0
 40
0
 40
1
 40
1
 40
1
 40
1
 10
373.446520
 20
1023.392100
 30
0.0
 10
374.702720
 20
1019.256100
 30
0.0
 10
376.660020
 20
1012.945300
 30
0.0
 10
377.796220
 20
1009.368200
 30
0.0
  0
SPLINE
  5
11d
100
AcDbEntity
  8
Image
 62
7
100
AcDbSpline
 70
8
 71
3
 72
8
 73
4
 74
0
 40
0
 40
0
 40
0
 40
0
 40
1
 40
1
 40
1
 40
1
 10
377.796220
 20
1009.368200
 30
0.0
 10
388.788620
 20
974.759700
 30
0.0
 10
400.266320
 20
931.611700
 30
0.0
 10
409.590820
 20
889.843200
 30
0.0
  0
SPLINE
  5
11e
100
AcDbEntity
  8
Image
 62
7
100
AcDbSpline
 70
8
 71
3
 72
8
 73
4
 74
0
 40
0
 40
0
 40
0
 40
0
 40
1
 40
1
 40
1
 40
1
 10
409.590820
 20
889.843200
 30
0.0
 10
435.348720
 20
774.462000
 30
0.0
 10
451.531920
 20
641.569400
 30
0.0
 10
456.320120
 20
506.112100
 30
0.0
  0
SPLINE
  5
11f
100
AcDbEntity
  8
Image
 62
7
100
AcDbSpline
 70
8
 71
3
 72
8
 73
4
 74
0
 40
0
 40
0
 40
0
 40
0
 40
1
 40
1
 40
1
 40
1
 10
456.320120
 20
506.112100
 30
0.0
 10
457.096520
 20
484.150500
 30
0.0
 10
457.331420
 20
472.222800
 30
0.0
 10
457.609220
 20
440.672100
 30
0.0
  0
SPLINE
  5
120
100
AcDbEntity
  8
Image
 62
7
100
AcDbSpline
 70
8
 71
3
 72
8
 73
4
 74
0
 40
0
 40
0
 40
0
 40
0
 40
1
 40
1
 40
1
 40
1
 10
457.609220
 20
440.672100
 30
0.0
 10
457.771120
 20
422.280100
 30
0.0
 10
458.044720
 20
402.408100
 30
0.0
 10
458.217120
 20
396.512100
 30
0.0
  0
SPLINE
  5
121
100
AcDbEntity
  8
Image
 62
7
100
AcDbSpline
 70
8
 71
3
 72
8
 73
4
 74
0
 40
0
 40
0
 40
0
 40
0
 40
1
 40
1
 40
1
 40
1
 10
458.217120
 20
396.512100
 30
0.0
 10
459.078320
 20
367.056200
 30
0.0
 10
459.347320
 20
340.718800
 30
0.0
 10
459.342920
 20
286.272100
 30
0.0
  0
SPLINE
  5
122
100
AcDbEntity
  8
Image
 62
7
100
AcDbSpline
 70
8
 71
3
 72
8
 73
4
 74
0
 40
0
 40
0
 40
0
 40
0
 40
1
 40
1
 40
1
 40
1
 10
459.342920
 20
286.272100
 30
0.0
 10
459.342920
 20
223.857000
 30
0.0
 10
458.971020
 20
195.110100
 30
0.0
 10
457.436020
 20
136.832100
 30
0.0
  0
SPLINE
  5
123
100
AcDbEntity
  8
Image
 62
7
100
AcDbSpline
 70
8
 71
3
 72
8
 73
4
 74
0
 40
0
 40
0
 40
0
 40
0
 40
1
 40
1
 40
1
 40
1
 10
457.436020
 20
136.832100
 30
0.0
 10
449.626520
 20
-159.657400
 30
0.0
 10
419.366320
 20
-519.115300
 30
0.0
 10
370.074420
 20
-900.927900
 30
0.0
  0
SPLINE
  5
124
100
AcDbEntity
  8
Image
 62
7
100
AcDbSpline
 70
8
 71
3
 72
8
 73
4
 74
0
 40
0
 40
0
 40
0
 40
0
 40
1
 40
1
 40
1
 40
1
 10
370.074420
 20
-900.927900
 30
0.0
 10
366.965420
 20
-925.009900
 30
0.0
 10
363.006220
 20
-951.938300
 30
0.0
 10
351.372520
 20
-1028.127900
 30
0.0
  0
SPLINE
  5
125
100
AcDbEntity
  8
Image
 62
7
100
AcDbSpline
 70
8
 71
3
 72
8
 73
4
 74
0
 40
0
 40
0
 40
0
 40
0
 40
1
 40
1
 40
1
 40
1
 10
351.372520
 20
-1028.127900
 30
0.0
 10
327.080820
 20
-1187.215300
 30
0.0
 10
312.165220
 20
-1273.996500
 30
0.0
 10
303.054820
 20
-1309.247900
 30
0.0
  0
SPLINE
  5
126
100
AcDbEntity
  8
Image
 62
7
100
AcDbSpline
 70
8
 71
3
 72
8
 73
4
 74
0
 40
0
 40
0
 40
0
 40
0
 40
1
 40
1
 40
1
 40
1
 10
303.054820
 20
-1309.247900
 30
0.0
 10
297.847720
 20
-1329.396100
 30
0.0
 10
287.033320
 20
-1360.893800
 30
0.0
 10
278.389220
 20
-1381.087900
 30
0.0
  0
SPLINE
  5
127
100
AcDbEntity
  8
Image
 62
7
100
AcDbSpline
 70
8
 71
3
 72
8
 73
4
 74
0
 40
0
 40
0
 40
0
 40
0
 40
1
 40
1
 40
1
 40
1
 10
278.389220
 20
-1381.087900
 30
0.0
 10
271.403520
 20
-1397.407800
 30
0.0
 10
262.194230
 20
-1415.217600
 30
0.0
 10
257.453530
 20
-1421.575200
 30
0.0
  0
SPLINE
  5
128
100
AcDbEntity
  8
Image
 62
7
100
AcDbSpline
 70
8
 71
3
 72
8
 73
4
 74
0
 40
0
 40
0
 40
0
 40
0
 40
1
 40
1
 40
1
 40
1
 10
257.453530
 20
-1421.575200
 30
0.0
 10
247.816730
 20
-1434.498700
 30
0.0
 10
231.306330
 20
-1440.275000
 30
0.0
 10
211.295730
 20
-1437.723800
 30
0.0
  0
SPLINE
  5
129
100
AcDbEntity
  8
Image
 62
7
100
AcDbSpline
 70
8
 71
3
 72
8
 73
4
 74
0
 40
0
 40
0
 40
0
 40
0
 40
1
 40
1
 40
1
 40
1
 10
211.295730
 20
-1437.723800
 30
0.0
 10
180.819130
 20
-1433.838200
 30
0.0
 10
148.953030
 20
-1422.983300
 30
0.0
 10
119.168130
 20
-1406.341400
 30
0.0
  0
SPLINE
  5
12a
100
AcDbEntity
  8
Image
 62
7
100
AcDbSpline
 70
8
 71
3
 72
8
 73
4
 74
0
 40
0
 40
0
 40
0
 40
0
 40
1
 40
1
 40
1
 40
1
 10
119.168130
 20
-1406.341400
 30
0.0
 10
113.326330
 20
-1403.077400
 30
0.0
 10
108.817130
 20
-1400.375000
 30
0.0
 10
100.003530
 20
-1394.855700
 30
0.0
  0
SPLINE
  5
12b
100
AcDbEntity
  8
Image
 62
7
100
AcDbSpline
 70
8
 71
3
 72
8
 73
4
 74
0
 40
0
 40
0
 40
0
 40
0
 40
1
 40
1
 40
1
 40
1
 10
100.003530
 20
-1394.855700
 30
0.0
 10
90.232483
 20
-1388.736900
 30
0.0
 10
87.155483
 20
-1386.896700
 30
0.0
 10
77.123478
 20
-1381.173200
 30
0.0
  0
SPLINE
  5
12c
100
AcDbEntity
  8
Image
 62
7
100
AcDbSpline
 70
8
 71
3
 72
8
 73
4
 74
0
 40
0
 40
0
 40
0
 40
0
 40
1
 40
1
 40
1
 40
1
 10
77.123478
 20
-1381.173200
 30
0.0
 10
52.461778
 20
-1367.102900
 30
0.0
 10
22.354778
 20
-1351.148800
 30
0.0
 10
17.273578
 20
-1349.457800
 30
0.0
  0
SPLINE
  5
12d
100
AcDbEntity
  8
Image
 62
7
100
AcDbSpline
 70
8
 71
3
 72
8
 73
4
 74
0
 40
0
 40
0
 40
0
 40
0
 40
1
 40
1
 40
1
 40
1
 10
17.273578
 20
-1349.457800
 30
0.0
 10
8.818281
 20
-1346.644100
 30
0.0
 10
-8.777117
 20
-1346.642600
 30
0.0
 10
-17.267522
 20
-1349.457800
 30
0.0
  0
SPLINE
  5
12e
100
AcDbEntity
  8
Image
 62
7
100
AcDbSpline
 70
8
 71
3
 72
8
 73
4
 74
0
 40
0
 40
0
 40
0
 40
0
 40
1
 40
1
 40
1
 40
1
 10
-17.267522
 20
-1349.457800
 30
0.0
 10
-25.010522
 20
-1352.022600
 30
0.0
 10
-76.980922
 20
-1380.500900
 30
0.0
 10
-99.941217
 20
-1394.760700
 30
0.0
  0
SPLINE
  5
12f
100
AcDbEntity
  8
Image
 62
7
100
AcDbSpline
 70
8
 71
3
 72
8
 73
4
 74
0
 40
0
 40
0
 40
0
 40
0
 40
1
 40
1
 40
1
 40
1
 10
-99.941217
 20
-1394.760700
 30
0.0
 10
-104.310680
 20
-1397.474500
 30
0.0
 10
-109.854670
 20
-1400.854900
 30
0.0
 10
-112.261170
 20
-1402.272700
 30
0.0
  0
SPLINE
  5
130
100
AcDbEntity
  8
Image
 62
7
100
AcDbSpline
 70
8
 71
3
 72
8
 73
4
 74
0
 40
0
 40
0
 40
0
 40
0
 40
1
 40
1
 40
1
 40
1
 10
-112.261170
 20
-1402.272700
 30
0.0
 10
-143.884270
 20
-1420.904400
 30
0.0
 10
-174.935870
 20
-1432.292400
 30
0.0
 10
-207.676470
 20
-1437.265800
 30
0.0
  0
SPLINE
  5
131
100
AcDbEntity
  8
Image
 62
7
100
AcDbSpline
 70
8
 71
3
 72
8
 73
4
 74
0
 40
0
 40
0
 40
0
 40
0
 40
1
 40
1
 40
1
 40
1
 10
-207.676470
 20
-1437.265800
 30
0.0
 10
-213.852370
 20
-1438.204000
 30
0.0
 10
-222.225270
 20
-1438.544300
 30
0.0
 10
-226.716470
 20
-1438.039600
 30
0.0
  0
LWPOLYLINE
  5
132
100
AcDbEntity
  8
Image
 62
7
100
AcDbPolyline
 90
2
 70
0
 10
-226.716470
 20
-1438.039600
 30
0.0
 10
-226.716470
 20
-1438.036700
 30
0.0
  0
ENDSEC
  0
SECTION
  2
OBJECTS
  0
DICTIONARY
  5
C
330
0
100
AcDbDictionary
  3
ACAD_GROUP
350
D
  3
ACAD_MLINESTYLE
350
17
  0
DICTIONARY
  5
D
330
C
100
AcDbDictionary
  0
DICTIONARY
  5
1A
330
C
100
AcDbDictionary
  0
DICTIONARY
  5
17
330
C
100
AcDbDictionary
  3
STANDARD
350
18
  0
DICTIONARY
  5
19
330
C
100
AcDbDictionary
  0
ENDSEC
  0
EOF
