  0
SECTION
  2
HEADER
  9
$ACADVER
  1
AC1014
  9
$HANDSEED
  5
FFFF
  9
$INSUNITS
 70
     0
  9
$MEASUREMENT
 70
     1
  0
ENDSEC
  0
SECTION
  2
TABLES
  0
TABLE
  2
VPORT
  5
8
330
0
100
AcDbSymbolTable
 70
     4
  0
VPORT
  5
2E
330
8
100
AcDbSymbolTableRecord
100
AcDbViewportTableRecord
  2
*ACTIVE
 70
     0
 10
0.0
 20
0.0
 11
1.0
 21
1.0
 12
210.0
 22
148.5
 13
0.0
 23
0.0
 14
10.0
 24
10.0
 15
10.0
 25
10.0
 16
0.0
 26
0.0
 36
1.0
 17
0.0
 27
0.0
 37
0.0
 40
341.0
 41
1.24
 42
50.0
 43
0.0
 44
0.0
 50
0.0
 51
0.0
 71
     0
 72
   100
 73
     1
 74
     3
 75
     0
 76
     0
 77
     0
 78
     0
  0
ENDTAB
  0
TABLE
  2
LTYPE
  5
5
330
0
100
AcDbSymbolTable
 70
     1
  0
LTYPE
  5
14
330
5
100
AcDbSymbolTableRecord
100
AcDbLinetypeTableRecord
  2
BYBLOCK
 70
     0
  3

 72
    65
 73
     0
 40
0.0
  0
LTYPE
  5
15
330
5
100
AcDbSymbolTableRecord
100
AcDbLinetypeTableRecord
  2
BYLAYER
 70
     0
  3

 72
    65
 73
     0
 40
0.0
  0
LTYPE
  5
16
330
5
100
AcDbSymbolTableRecord
100
AcDbLinetypeTableRecord
  2
CONTINUOUS
 70
     0
  3
Solid line
 72
    65
 73
     0
 40
0.0
  0
ENDTAB
  0
TABLE
  2
LAYER
  5
2
100
AcDbSymbolTable
 70
2
  0
LAYER
  5
50
100
AcDbSymbolTableRecord
100
AcDbLayerTableRecord
  2
0
 70
0
  6
CONTINUOUS
  0
LAYER
  5
51
100
AcDbSymbolTableRecord
100
AcDbLayerTableRecord
  2
Image
 70
0
  6
CONTINUOUS
  0
ENDTAB
  0
TABLE
  2
STYLE
  5
3
330
0
100
AcDbSymbolTable
 70
     1
  0
STYLE
  5
11
330
3
100
AcDbSymbolTableRecord
100
AcDbTextStyleTableRecord
  2
STANDARD
 70
     0
 40
0.0
 41
1.0
 50
0.0
 71
     0
 42
2.5
  3
txt
  4

  0
ENDTAB
  0
TABLE
  2
VIEW
  5
6
330
0
100
AcDbSymbolTable
 70
     0
  0
ENDTAB
  0
TABLE
  2
UCS
  5
7
330
0
100
AcDbSymbolTable
 70
     0
  0
ENDTAB
  0
TABLE
  2
APPID
  5
9
330
0
100
AcDbSymbolTable
 70
     2
  0
APPID
  5
12
330
9
100
AcDbSymbolTableRecord
100
AcDbRegAppTableRecord
  2
ACAD
 70
     0
  0
ENDTAB
  0
TABLE
  2
DIMSTYLE
  5
A
330
0
100
AcDbSymbolTable
 70
     1
  0
DIMSTYLE
105
27
330
A
100
AcDbSymbolTableRecord
100
AcDbDimStyleTableRecord
  2
ISO-25
 70
     0
  3

  4

  5

  6

  7

 40
1.0
 41
2.5
 42
0.625
 43
3.75
 44
1.25
 45
0.0
 46
0.0
 47
0.0
 48
0.0
140
2.5
141
2.5
142
0.0
143
0.03937007874016
144
1.0
145
0.0
146
1.0
147
0.625
 71
     0
 72
     0
 73
     0
 74
     0
 75
     0
 76
     0
 77
     1
 78
     8
170
     0
171
     3
172
     1
173
     0
174
     0
175
     0
176
     0
177
     0
178
     0
270
     2
271
     2
272
     2
273
     2
274
     3
340
11
275
     0
280
     0
281
     0
282
     0
283
     0
284
     8
285
     0
286
     0
287
     3
288
     0
  0
ENDTAB
  0
TABLE
  2
BLOCK_RECORD
  5
1
330
0
100
AcDbSymbolTable
 70
     1
  0
BLOCK_RECORD
  5
1F
330
1
100
AcDbSymbolTableRecord
100
AcDbBlockTableRecord
  2
*MODEL_SPACE
  0
BLOCK_RECORD
  5
1B
330
1
100
AcDbSymbolTableRecord
100
AcDbBlockTableRecord
  2
*PAPER_SPACE
  0
ENDTAB
  0
ENDSEC
  0
SECTION
  2
BLOCKS
  0
BLOCK
  5
20
330
1F
100
AcDbEntity
  8
0
100
AcDbBlockBegin
  2
*MODEL_SPACE
 70
     0
 10
0.0
 20
0.0
 30
0.0
  3
*MODEL_SPACE
  1

  0
ENDBLK
  5
21
330
1F
100
AcDbEntity
  8
0
100
AcDbBlockEnd
  0
BLOCK
  5
1C
330
1B
100
AcDbEntity
 67
     1
  8
0
100
AcDbBlockBegin
  2
*PAPER_SPACE
  1

  0
ENDBLK
  5
1D
330
1B
100
AcDbEntity
 67
     1
  8
0
100
AcDbBlockEnd
  0
ENDSEC
  0
SECTION
  2
ENTITIES
  0
SPLINE
  5
100
100
AcDbEntity
  8
Image
 62
7
100
AcDbSpline
 70
8
 71
3
 72
8
 73
4
 74
0
 40
0
 40
0
 40
0
 40
0
 40
1
 40
1
 40
1
 40
1
 10
580.601150
 20
-1999.021500
 30
0.0
 10
442.752490
 20
-1996.095700
 30
0.0
 10
351.626690
 20
-1979.102900
 30
0.0
 10
293.241150
 20
-1945.435700
 30
0.0
  0
SPLINE
  5
101
100
AcDbEntity
  8
Image
 62
7
100
AcDbSpline
 70
8
 71
3
 72
8
 73
4
 74
0
 40
0
 40
0
 40
0
 40
0
 40
1
 40
1
 40
1
 40
1
 10
293.241150
 20
-1945.435700
 30
0.0
 10
262.213910
 20
-1927.544300
 30
0.0
 10
240.190490
 20
-1905.006200
 30
0.0
 10
225.709640
 20
-1876.326000
 30
0.0
  0
SPLINE
  5
102
100
AcDbEntity
  8
Image
 62
7
100
AcDbSpline
 70
8
 71
3
 72
8
 73
4
 74
0
 40
0
 40
0
 40
0
 40
0
 40
1
 40
1
 40
1
 40
1
 10
225.709640
 20
-1876.326000
 30
0.0
 10
221.769740
 20
-1868.522800
 30
0.0
 10
219.439270
 20
-1862.984300
 30
0.0
 10
216.618680
 20
-1854.720900
 30
0.0
  0
SPLINE
  5
103
100
AcDbEntity
  8
Image
 62
7
100
AcDbSpline
 70
8
 71
3
 72
8
 73
4
 74
0
 40
0
 40
0
 40
0
 40
0
 40
1
 40
1
 40
1
 40
1
 10
216.618680
 20
-1854.720900
 30
0.0
 10
203.636000
 20
-1816.686000
 30
0.0
 10
200.597840
 20
-1751.533000
 30
0.0
 10
206.531670
 20
-1638.406000
 30
0.0
  0
SPLINE
  5
104
100
AcDbEntity
  8
Image
 62
7
100
AcDbSpline
 70
8
 71
3
 72
8
 73
4
 74
0
 40
0
 40
0
 40
0
 40
0
 40
1
 40
1
 40
1
 40
1
 10
206.531670
 20
-1638.406000
 30
0.0
 10
208.227940
 20
-1606.066900
 30
0.0
 10
209.856450
 20
-1581.134400
 30
0.0
 10
215.958150
 20
-1494.086000
 30
0.0
  0
SPLINE
  5
105
100
AcDbEntity
  8
Image
 62
7
100
AcDbSpline
 70
8
 71
3
 72
8
 73
4
 74
0
 40
0
 40
0
 40
0
 40
0
 40
1
 40
1
 40
1
 40
1
 10
215.958150
 20
-1494.086000
 30
0.0
 10
226.383240
 20
-1345.359000
 30
0.0
 10
228.508340
 20
-1285.954300
 30
0.0
 10
226.037600
 20
-1212.326000
 30
0.0
  0
SPLINE
  5
106
100
AcDbEntity
  8
Image
 62
7
100
AcDbSpline
 70
8
 71
3
 72
8
 73
4
 74
0
 40
0
 40
0
 40
0
 40
0
 40
1
 40
1
 40
1
 40
1
 10
226.037600
 20
-1212.326000
 30
0.0
 10
223.453190
 20
-1135.310200
 30
0.0
 10
216.097230
 20
-1026.322800
 30
0.0
 10
203.143730
 20
-873.126000
 30
0.0
  0
SPLINE
  5
107
100
AcDbEntity
  8
Image
 62
7
100
AcDbSpline
 70
8
 71
3
 72
8
 73
4
 74
0
 40
0
 40
0
 40
0
 40
0
 40
1
 40
1
 40
1
 40
1
 10
203.143730
 20
-873.126000
 30
0.0
 10
196.906100
 20
-799.355500
 30
0.0
 10
189.620900
 20
-718.120900
 30
0.0
 10
176.282490
 20
-573.606000
 30
0.0
  0
SPLINE
  5
108
100
AcDbEntity
  8
Image
 62
7
100
AcDbSpline
 70
8
 71
3
 72
8
 73
4
 74
0
 40
0
 40
0
 40
0
 40
0
 40
1
 40
1
 40
1
 40
1
 10
176.282490
 20
-573.606000
 30
0.0
 10
158.642050
 20
-382.480700
 30
0.0
 10
156.235190
 20
-354.891100
 30
0.0
 10
149.413170
 20
-265.606000
 30
0.0
  0
SPLINE
  5
109
100
AcDbEntity
  8
Image
 62
7
100
AcDbSpline
 70
8
 71
3
 72
8
 73
4
 74
0
 40
0
 40
0
 40
0
 40
0
 40
1
 40
1
 40
1
 40
1
 10
149.413170
 20
-265.606000
 30
0.0
 10
141.828600
 20
-166.340800
 30
0.0
 10
139.780310
 20
-136.124300
 30
0.0
 10
137.732080
 20
-93.286000
 30
0.0
  0
SPLINE
  5
10a
100
AcDbEntity
  8
Image
 62
7
100
AcDbSpline
 70
8
 71
3
 72
8
 73
4
 74
0
 40
0
 40
0
 40
0
 40
0
 40
1
 40
1
 40
1
 40
1
 10
137.732080
 20
-93.286000
 30
0.0
 10
135.770500
 20
-52.259800
 30
0.0
 10
135.325940
 20
-33.407100
 30
0.0
 10
135.324950
 20
8.794000
 30
0.0
  0
SPLINE
  5
10b
100
AcDbEntity
  8
Image
 62
7
100
AcDbSpline
 70
8
 71
3
 72
8
 73
4
 74
0
 40
0
 40
0
 40
0
 40
0
 40
1
 40
1
 40
1
 40
1
 10
135.324950
 20
8.794000
 30
0.0
 10
135.324120
 20
44.378000
 30
0.0
 10
135.482640
 20
53.956400
 30
0.0
 10
136.450390
 20
76.794000
 30
0.0
  0
SPLINE
  5
10c
100
AcDbEntity
  8
Image
 62
7
100
AcDbSpline
 70
8
 71
3
 72
8
 73
4
 74
0
 40
0
 40
0
 40
0
 40
0
 40
1
 40
1
 40
1
 40
1
 10
136.450390
 20
76.794000
 30
0.0
 10
139.623800
 20
151.682500
 30
0.0
 10
148.036430
 20
221.869000
 30
0.0
 10
162.512970
 20
294.234000
 30
0.0
  0
SPLINE
  5
10d
100
AcDbEntity
  8
Image
 62
7
100
AcDbSpline
 70
8
 71
3
 72
8
 73
4
 74
0
 40
0
 40
0
 40
0
 40
0
 40
1
 40
1
 40
1
 40
1
 10
162.512970
 20
294.234000
 30
0.0
 10
204.263630
 20
502.936100
 30
0.0
 10
281.411080
 20
654.097900
 30
0.0
 10
390.672330
 20
741.286600
 30
0.0
  0
SPLINE
  5
10e
100
AcDbEntity
  8
Image
 62
7
100
AcDbSpline
 70
8
 71
3
 72
8
 73
4
 74
0
 40
0
 40
0
 40
0
 40
0
 40
1
 40
1
 40
1
 40
1
 10
390.672330
 20
741.286600
 30
0.0
 10
436.866660
 20
778.148900
 30
0.0
 10
489.376910
 20
803.217000
 30
0.0
 10
543.161150
 20
814.084000
 30
0.0
  0
SPLINE
  5
10f
100
AcDbEntity
  8
Image
 62
7
100
AcDbSpline
 70
8
 71
3
 72
8
 73
4
 74
0
 40
0
 40
0
 40
0
 40
0
 40
1
 40
1
 40
1
 40
1
 10
543.161150
 20
814.084000
 30
0.0
 10
556.282700
 20
816.735200
 30
0.0
 10
568.657760
 20
818.470000
 30
0.0
 10
582.361150
 20
819.579500
 30
0.0
  0
SPLINE
  5
110
100
AcDbEntity
  8
Image
 62
7
100
AcDbSpline
 70
8
 71
3
 72
8
 73
4
 74
0
 40
0
 40
0
 40
0
 40
0
 40
1
 40
1
 40
1
 40
1
 10
582.361150
 20
819.579500
 30
0.0
 10
589.460170
 20
820.154200
 30
0.0
 10
629.342120
 20
820.154200
 30
0.0
 10
636.441150
 20
819.579500
 30
0.0
  0
SPLINE
  5
111
100
AcDbEntity
  8
Image
 62
7
100
AcDbSpline
 70
8
 71
3
 72
8
 73
4
 74
0
 40
0
 40
0
 40
0
 40
0
 40
1
 40
1
 40
1
 40
1
 10
636.441150
 20
819.579500
 30
0.0
 10
695.267950
 20
814.816800
 30
0.0
 10
750.910120
 20
794.844800
 30
0.0
 10
802.862770
 20
759.844700
 30
0.0
  0
SPLINE
  5
112
100
AcDbEntity
  8
Image
 62
7
100
AcDbSpline
 70
8
 71
3
 72
8
 73
4
 74
0
 40
0
 40
0
 40
0
 40
0
 40
1
 40
1
 40
1
 40
1
 10
802.862770
 20
759.844700
 30
0.0
 10
845.344630
 20
731.225000
 30
0.0
 10
884.269390
 20
692.463200
 30
0.0
 10
918.252300
 20
644.938400
 30
0.0
  0
SPLINE
  5
113
100
AcDbEntity
  8
Image
 62
7
100
AcDbSpline
 70
8
 71
3
 72
8
 73
4
 74
0
 40
0
 40
0
 40
0
 40
0
 40
1
 40
1
 40
1
 40
1
 10
918.252300
 20
644.938400
 30
0.0
 10
978.244140
 20
561.040400
 30
0.0
 10
1023.361900
 20
449.305200
 30
0.0
 10
1052.563300
 20
312.314000
 30
0.0
  0
SPLINE
  5
114
100
AcDbEntity
  8
Image
 62
7
100
AcDbSpline
 70
8
 71
3
 72
8
 73
4
 74
0
 40
0
 40
0
 40
0
 40
0
 40
1
 40
1
 40
1
 40
1
 10
1052.563300
 20
312.314000
 30
0.0
 10
1069.311500
 20
233.744400
 30
0.0
 10
1079.077600
 20
156.444600
 30
0.0
 10
1082.359500
 20
76.474000
 30
0.0
  0
SPLINE
  5
115
100
AcDbEntity
  8
Image
 62
7
100
AcDbSpline
 70
8
 71
3
 72
8
 73
4
 74
0
 40
0
 40
0
 40
0
 40
0
 40
1
 40
1
 40
1
 40
1
 10
1082.359500
 20
76.474000
 30
0.0
 10
1083.206100
 20
55.844400
 30
0.0
 10
1083.366900
 20
48.147500
 30
0.0
 10
1083.539200
 20
19.994000
 30
0.0
  0
SPLINE
  5
116
100
AcDbEntity
  8
Image
 62
7
100
AcDbSpline
 70
8
 71
3
 72
8
 73
4
 74
0
 40
0
 40
0
 40
0
 40
0
 40
1
 40
1
 40
1
 40
1
 10
1083.539200
 20
19.994000
 30
0.0
 10
1083.804400
 20
-23.348800
 30
0.0
 10
1082.938700
 20
-58.433500
 30
0.0
 10
1080.428200
 20
-106.086000
 30
0.0
  0
SPLINE
  5
117
100
AcDbEntity
  8
Image
 62
7
100
AcDbSpline
 70
8
 71
3
 72
8
 73
4
 74
0
 40
0
 40
0
 40
0
 40
0
 40
1
 40
1
 40
1
 40
1
 10
1080.428200
 20
-106.086000
 30
0.0
 10
1078.378300
 20
-144.995500
 30
0.0
 10
1076.271400
 20
-175.584200
 30
0.0
 10
1069.870600
 20
-259.366000
 30
0.0
  0
SPLINE
  5
118
100
AcDbEntity
  8
Image
 62
7
100
AcDbSpline
 70
8
 71
3
 72
8
 73
4
 74
0
 40
0
 40
0
 40
0
 40
0
 40
1
 40
1
 40
1
 40
1
 10
1069.870600
 20
-259.366000
 30
0.0
 10
1062.463400
 20
-356.320000
 30
0.0
 10
1060.562200
 20
-378.163800
 30
0.0
 10
1042.519700
 20
-573.606000
 30
0.0
  0
SPLINE
  5
119
100
AcDbEntity
  8
Image
 62
7
100
AcDbSpline
 70
8
 71
3
 72
8
 73
4
 74
0
 40
0
 40
0
 40
0
 40
0
 40
1
 40
1
 40
1
 40
1
 10
1042.519700
 20
-573.606000
 30
0.0
 10
1018.062000
 20
-838.539800
 30
0.0
 10
1007.445000
 20
-964.157200
 30
0.0
 10
999.814380
 20
-1078.886000
 30
0.0
  0
SPLINE
  5
11a
100
AcDbEntity
  8
Image
 62
7
100
AcDbSpline
 70
8
 71
3
 72
8
 73
4
 74
0
 40
0
 40
0
 40
0
 40
0
 40
1
 40
1
 40
1
 40
1
 10
999.814380
 20
-1078.886000
 30
0.0
 10
993.256580
 20
-1177.484400
 30
0.0
 10
990.995950
 20
-1240.384300
 30
0.0
 10
992.120330
 20
-1292.966000
 30
0.0
  0
SPLINE
  5
11b
100
AcDbEntity
  8
Image
 62
7
100
AcDbSpline
 70
8
 71
3
 72
8
 73
4
 74
0
 40
0
 40
0
 40
0
 40
0
 40
1
 40
1
 40
1
 40
1
 10
992.120330
 20
-1292.966000
 30
0.0
 10
993.262420
 20
-1346.375500
 30
0.0
 10
995.751490
 20
-1392.895900
 30
0.0
 10
1003.001100
 20
-1496.326000
 30
0.0
  0
SPLINE
  5
11c
100
AcDbEntity
  8
Image
 62
7
100
AcDbSpline
 70
8
 71
3
 72
8
 73
4
 74
0
 40
0
 40
0
 40
0
 40
0
 40
1
 40
1
 40
1
 40
1
 10
1003.001100
 20
-1496.326000
 30
0.0
 10
1008.941500
 20
-1581.077900
 30
0.0
 10
1010.571700
 20
-1606.066600
 30
0.0
 10
1012.270200
 20
-1638.406000
 30
0.0
  0
SPLINE
  5
11d
100
AcDbEntity
  8
Image
 62
7
100
AcDbSpline
 70
8
 71
3
 72
8
 73
4
 74
0
 40
0
 40
0
 40
0
 40
0
 40
1
 40
1
 40
1
 40
1
 10
1012.270200
 20
-1638.406000
 30
0.0
 10
1017.612900
 20
-1740.131500
 30
0.0
 10
1015.628500
 20
-1803.331300
 30
0.0
 10
1005.869000
 20
-1842.277900
 30
0.0
  0
SPLINE
  5
11e
100
AcDbEntity
  8
Image
 62
7
100
AcDbSpline
 70
8
 71
3
 72
8
 73
4
 74
0
 40
0
 40
0
 40
0
 40
0
 40
1
 40
1
 40
1
 40
1
 10
1005.869000
 20
-1842.277900
 30
0.0
 10
1001.123700
 20
-1861.214500
 30
0.0
 10
991.981420
 20
-1881.187300
 30
0.0
 10
981.158080
 20
-1896.262600
 30
0.0
  0
SPLINE
  5
11f
100
AcDbEntity
  8
Image
 62
7
100
AcDbSpline
 70
8
 71
3
 72
8
 73
4
 74
0
 40
0
 40
0
 40
0
 40
0
 40
1
 40
1
 40
1
 40
1
 10
981.158080
 20
-1896.262600
 30
0.0
 10
967.014960
 20
-1915.961800
 30
0.0
 10
948.919640
 20
-1931.966400
 30
0.0
 10
925.561150
 20
-1945.435700
 30
0.0
  0
SPLINE
  5
120
100
AcDbEntity
  8
Image
 62
7
100
AcDbSpline
 70
8
 71
3
 72
8
 73
4
 74
0
 40
0
 40
0
 40
0
 40
0
 40
1
 40
1
 40
1
 40
1
 10
925.561150
 20
-1945.435700
 30
0.0
 10
875.224710
 20
-1974.461500
 30
0.0
 10
800.119530
 20
-1991.128700
 30
0.0
 10
693.401150
 20
-1996.956200
 30
0.0
  0
SPLINE
  5
121
100
AcDbEntity
  8
Image
 62
7
100
AcDbSpline
 70
8
 71
3
 72
8
 73
4
 74
0
 40
0
 40
0
 40
0
 40
0
 40
1
 40
1
 40
1
 40
1
 10
693.401150
 20
-1996.956200
 30
0.0
 10
655.433280
 20
-1999.029500
 30
0.0
 10
615.459520
 20
-1999.761400
 30
0.0
 10
580.601150
 20
-1999.021500
 30
0.0
  0
LWPOLYLINE
  5
122
100
AcDbEntity
  8
Image
 62
7
100
AcDbPolyline
 90
1
 70
1
 10
580.601150
 20
-1999.021500
 30
0.0
  0
ENDSEC
  0
SECTION
  2
OBJECTS
  0
DICTIONARY
  5
C
330
0
100
AcDbDictionary
  3
ACAD_GROUP
350
D
  3
ACAD_MLINESTYLE
350
17
  0
DICTIONARY
  5
D
330
C
100
AcDbDictionary
  0
DICTIONARY
  5
1A
330
C
100
AcDbDictionary
  0
DICTIONARY
  5
17
330
C
100
AcDbDictionary
  3
STANDARD
350
18
  0
DICTIONARY
  5
19
330
C
100
AcDbDictionary
  0
ENDSEC
  0
EOF
