  0
SECTION
  2
HEADER
  9
$ACADVER
  1
AC1014
  9
$HANDSEED
  5
FFFF
  9
$INSUNITS
 70
     0
  9
$MEASUREMENT
 70
     1
  0
ENDSEC
  0
SECTION
  2
TABLES
  0
TABLE
  2
VPORT
  5
8
330
0
100
AcDbSymbolTable
 70
     4
  0
VPORT
  5
2E
330
8
100
AcDbSymbolTableRecord
100
AcDbViewportTableRecord
  2
*ACTIVE
 70
     0
 10
0.0
 20
0.0
 11
1.0
 21
1.0
 12
210.0
 22
148.5
 13
0.0
 23
0.0
 14
10.0
 24
10.0
 15
10.0
 25
10.0
 16
0.0
 26
0.0
 36
1.0
 17
0.0
 27
0.0
 37
0.0
 40
341.0
 41
1.24
 42
50.0
 43
0.0
 44
0.0
 50
0.0
 51
0.0
 71
     0
 72
   100
 73
     1
 74
     3
 75
     0
 76
     0
 77
     0
 78
     0
  0
ENDTAB
  0
TABLE
  2
LTYPE
  5
5
330
0
100
AcDbSymbolTable
 70
     1
  0
LTYPE
  5
14
330
5
100
AcDbSymbolTableRecord
100
AcDbLinetypeTableRecord
  2
BYBLOCK
 70
     0
  3

 72
    65
 73
     0
 40
0.0
  0
LTYPE
  5
15
330
5
100
AcDbSymbolTableRecord
100
AcDbLinetypeTableRecord
  2
BYLAYER
 70
     0
  3

 72
    65
 73
     0
 40
0.0
  0
LTYPE
  5
16
330
5
100
AcDbSymbolTableRecord
100
AcDbLinetypeTableRecord
  2
CONTINUOUS
 70
     0
  3
Solid line
 72
    65
 73
     0
 40
0.0
  0
ENDTAB
  0
TABLE
  2
LAYER
  5
2
100
AcDbSymbolTable
 70
2
  0
LAYER
  5
50
100
AcDbSymbolTableRecord
100
AcDbLayerTableRecord
  2
0
 70
0
  6
CONTINUOUS
  0
LAYER
  5
51
100
AcDbSymbolTableRecord
100
AcDbLayerTableRecord
  2
Image
 70
0
  6
CONTINUOUS
  0
ENDTAB
  0
TABLE
  2
STYLE
  5
3
330
0
100
AcDbSymbolTable
 70
     1
  0
STYLE
  5
11
330
3
100
AcDbSymbolTableRecord
100
AcDbTextStyleTableRecord
  2
STANDARD
 70
     0
 40
0.0
 41
1.0
 50
0.0
 71
     0
 42
2.5
  3
txt
  4

  0
ENDTAB
  0
TABLE
  2
VIEW
  5
6
330
0
100
AcDbSymbolTable
 70
     0
  0
ENDTAB
  0
TABLE
  2
UCS
  5
7
330
0
100
AcDbSymbolTable
 70
     0
  0
ENDTAB
  0
TABLE
  2
APPID
  5
9
330
0
100
AcDbSymbolTable
 70
     2
  0
APPID
  5
12
330
9
100
AcDbSymbolTableRecord
100
AcDbRegAppTableRecord
  2
ACAD
 70
     0
  0
ENDTAB
  0
TABLE
  2
DIMSTYLE
  5
A
330
0
100
AcDbSymbolTable
 70
     1
  0
DIMSTYLE
105
27
330
A
100
AcDbSymbolTableRecord
100
AcDbDimStyleTableRecord
  2
ISO-25
 70
     0
  3

  4

  5

  6

  7

 40
1.0
 41
2.5
 42
0.625
 43
3.75
 44
1.25
 45
0.0
 46
0.0
 47
0.0
 48
0.0
140
2.5
141
2.5
142
0.0
143
0.03937007874016
144
1.0
145
0.0
146
1.0
147
0.625
 71
     0
 72
     0
 73
     0
 74
     0
 75
     0
 76
     0
 77
     1
 78
     8
170
     0
171
     3
172
     1
173
     0
174
     0
175
     0
176
     0
177
     0
178
     0
270
     2
271
     2
272
     2
273
     2
274
     3
340
11
275
     0
280
     0
281
     0
282
     0
283
     0
284
     8
285
     0
286
     0
287
     3
288
     0
  0
ENDTAB
  0
TABLE
  2
BLOCK_RECORD
  5
1
330
0
100
AcDbSymbolTable
 70
     1
  0
BLOCK_RECORD
  5
1F
330
1
100
AcDbSymbolTableRecord
100
AcDbBlockTableRecord
  2
*MODEL_SPACE
  0
BLOCK_RECORD
  5
1B
330
1
100
AcDbSymbolTableRecord
100
AcDbBlockTableRecord
  2
*PAPER_SPACE
  0
ENDTAB
  0
ENDSEC
  0
SECTION
  2
BLOCKS
  0
BLOCK
  5
20
330
1F
100
AcDbEntity
  8
0
100
AcDbBlockBegin
  2
*MODEL_SPACE
 70
     0
 10
0.0
 20
0.0
 30
0.0
  3
*MODEL_SPACE
  1

  0
ENDBLK
  5
21
330
1F
100
AcDbEntity
  8
0
100
AcDbBlockEnd
  0
BLOCK
  5
1C
330
1B
100
AcDbEntity
 67
     1
  8
0
100
AcDbBlockBegin
  2
*PAPER_SPACE
  1

  0
ENDBLK
  5
1D
330
1B
100
AcDbEntity
 67
     1
  8
0
100
AcDbBlockEnd
  0
ENDSEC
  0
SECTION
  2
ENTITIES
  0
SPLINE
  5
100
100
AcDbEntity
  8
Image
 62
7
100
AcDbSpline
 70
8
 71
3
 72
8
 73
4
 74
0
 40
0
 40
0
 40
0
 40
0
 40
1
 40
1
 40
1
 40
1
 10
-15.968929
 20
-1530.518800
 30
0.0
 10
-95.086142
 20
-1526.577400
 30
0.0
 10
-169.898990
 20
-1514.097900
 30
0.0
 10
-225.699350
 20
-1495.533800
 30
0.0
  0
SPLINE
  5
101
100
AcDbEntity
  8
Image
 62
7
100
AcDbSpline
 70
8
 71
3
 72
8
 73
4
 74
0
 40
0
 40
0
 40
0
 40
0
 40
1
 40
1
 40
1
 40
1
 10
-225.699350
 20
-1495.533800
 30
0.0
 10
-244.709270
 20
-1489.209400
 30
0.0
 10
-256.989740
 20
-1483.691200
 30
0.0
 10
-270.630470
 20
-1475.344100
 30
0.0
  0
SPLINE
  5
102
100
AcDbEntity
  8
Image
 62
7
100
AcDbSpline
 70
8
 71
3
 72
8
 73
4
 74
0
 40
0
 40
0
 40
0
 40
0
 40
1
 40
1
 40
1
 40
1
 10
-270.630470
 20
-1475.344100
 30
0.0
 10
-285.892950
 20
-1466.004500
 30
0.0
 10
-301.144160
 20
-1452.978100
 30
0.0
 10
-312.794500
 20
-1439.330700
 30
0.0
  0
SPLINE
  5
103
100
AcDbEntity
  8
Image
 62
7
100
AcDbSpline
 70
8
 71
3
 72
8
 73
4
 74
0
 40
0
 40
0
 40
0
 40
0
 40
1
 40
1
 40
1
 40
1
 10
-312.794500
 20
-1439.330700
 30
0.0
 10
-344.011270
 20
-1402.762900
 30
0.0
 10
-362.414730
 20
-1352.303100
 30
0.0
 10
-368.114460
 20
-1287.650700
 30
0.0
  0
SPLINE
  5
104
100
AcDbEntity
  8
Image
 62
7
100
AcDbSpline
 70
8
 71
3
 72
8
 73
4
 74
0
 40
0
 40
0
 40
0
 40
0
 40
1
 40
1
 40
1
 40
1
 10
-368.114460
 20
-1287.650700
 30
0.0
 10
-368.919630
 20
-1278.517500
 30
0.0
 10
-369.527980
 20
-1267.122400
 30
0.0
 10
-369.874080
 20
-1254.690700
 30
0.0
  0
SPLINE
  5
105
100
AcDbEntity
  8
Image
 62
7
100
AcDbSpline
 70
8
 71
3
 72
8
 73
4
 74
0
 40
0
 40
0
 40
0
 40
0
 40
1
 40
1
 40
1
 40
1
 10
-369.874080
 20
-1254.690700
 30
0.0
 10
-370.052930
 20
-1248.266700
 30
0.0
 10
-370.367430
 20
-1238.134400
 30
0.0
 10
-370.572970
 20
-1232.174500
 30
0.0
  0
SPLINE
  5
106
100
AcDbEntity
  8
Image
 62
7
100
AcDbSpline
 70
8
 71
3
 72
8
 73
4
 74
0
 40
0
 40
0
 40
0
 40
0
 40
1
 40
1
 40
1
 40
1
 10
-370.572970
 20
-1232.174500
 30
0.0
 10
-370.982230
 20
-1220.307600
 30
0.0
 10
-370.787480
 20
-1185.746600
 30
0.0
 10
-370.216590
 20
-1168.930700
 30
0.0
  0
SPLINE
  5
107
100
AcDbEntity
  8
Image
 62
7
100
AcDbSpline
 70
8
 71
3
 72
8
 73
4
 74
0
 40
0
 40
0
 40
0
 40
0
 40
1
 40
1
 40
1
 40
1
 10
-370.216590
 20
-1168.930700
 30
0.0
 10
-368.831240
 20
-1128.124400
 30
0.0
 10
-367.654380
 20
-1102.123500
 30
0.0
 10
-363.170190
 20
-1013.250700
 30
0.0
  0
SPLINE
  5
108
100
AcDbEntity
  8
Image
 62
7
100
AcDbSpline
 70
8
 71
3
 72
8
 73
4
 74
0
 40
0
 40
0
 40
0
 40
0
 40
1
 40
1
 40
1
 40
1
 10
-363.170190
 20
-1013.250700
 30
0.0
 10
-357.940880
 20
-909.610100
 30
0.0
 10
-356.389640
 20
-868.097300
 30
0.0
 10
-356.916340
 20
-845.890700
 30
0.0
  0
SPLINE
  5
109
100
AcDbEntity
  8
Image
 62
7
100
AcDbSpline
 70
8
 71
3
 72
8
 73
4
 74
0
 40
0
 40
0
 40
0
 40
0
 40
1
 40
1
 40
1
 40
1
 10
-356.916340
 20
-845.890700
 30
0.0
 10
-357.141090
 20
-836.414800
 30
0.0
 10
-357.168100
 20
-835.989600
 30
0.0
 10
-358.674690
 20
-818.210700
 30
0.0
  0
SPLINE
  5
10a
100
AcDbEntity
  8
Image
 62
7
100
AcDbSpline
 70
8
 71
3
 72
8
 73
4
 74
0
 40
0
 40
0
 40
0
 40
0
 40
1
 40
1
 40
1
 40
1
 10
-358.674690
 20
-818.210700
 30
0.0
 10
-361.178330
 20
-788.665800
 30
0.0
 10
-364.549670
 20
-741.622300
 30
0.0
 10
-369.900190
 20
-661.570700
 30
0.0
  0
SPLINE
  5
10b
100
AcDbEntity
  8
Image
 62
7
100
AcDbSpline
 70
8
 71
3
 72
8
 73
4
 74
0
 40
0
 40
0
 40
0
 40
0
 40
1
 40
1
 40
1
 40
1
 10
-373.245320
 20
-579.010700
 30
0.0
 10
-375.019630
 20
-511.845000
 30
0.0
 10
-378.535910
 20
-374.667700
 30
0.0
 10
-379.803300
 20
-323.170700
 30
0.0
  0
SPLINE
  5
10c
100
AcDbEntity
  8
Image
 62
7
100
AcDbSpline
 70
8
 71
3
 72
8
 73
4
 74
0
 40
0
 40
0
 40
0
 40
0
 40
1
 40
1
 40
1
 40
1
 10
-379.803300
 20
-323.170700
 30
0.0
 10
-381.071370
 20
-271.645800
 30
0.0
 10
-381.509670
 20
-258.284600
 30
0.0
 10
-383.020740
 20
-225.090700
 30
0.0
  0
SPLINE
  5
10d
100
AcDbEntity
  8
Image
 62
7
100
AcDbSpline
 70
8
 71
3
 72
8
 73
4
 74
0
 40
0
 40
0
 40
0
 40
0
 40
1
 40
1
 40
1
 40
1
 10
-383.020740
 20
-225.090700
 30
0.0
 10
-384.884560
 20
-184.147600
 30
0.0
 10
-386.598300
 20
-152.978300
 30
0.0
 10
-388.131830
 20
-132.130700
 30
0.0
  0
SPLINE
  5
10e
100
AcDbEntity
  8
Image
 62
7
100
AcDbSpline
 70
8
 71
3
 72
8
 73
4
 74
0
 40
0
 40
0
 40
0
 40
0
 40
1
 40
1
 40
1
 40
1
 10
-388.131830
 20
-132.130700
 30
0.0
 10
-396.582730
 20
-17.244900
 30
0.0
 10
-403.136450
 20
112.352800
 30
0.0
 10
-406.523030
 20
231.549300
 30
0.0
  0
SPLINE
  5
10f
100
AcDbEntity
  8
Image
 62
7
100
AcDbSpline
 70
8
 71
3
 72
8
 73
4
 74
0
 40
0
 40
0
 40
0
 40
0
 40
1
 40
1
 40
1
 40
1
 10
-406.523030
 20
231.549300
 30
0.0
 10
-410.400880
 20
368.036900
 30
0.0
 10
-410.175840
 20
498.652300
 30
0.0
 10
-405.881280
 20
604.028600
 30
0.0
  0
SPLINE
  5
110
100
AcDbEntity
  8
Image
 62
7
100
AcDbSpline
 70
8
 71
3
 72
8
 73
4
 74
0
 40
0
 40
0
 40
0
 40
0
 40
1
 40
1
 40
1
 40
1
 10
-405.881280
 20
604.028600
 30
0.0
 10
-402.684380
 20
682.472000
 30
0.0
 10
-398.067810
 20
743.169100
 30
0.0
 10
-390.365220
 20
808.028600
 30
0.0
  0
SPLINE
  5
111
100
AcDbEntity
  8
Image
 62
7
100
AcDbSpline
 70
8
 71
3
 72
8
 73
4
 74
0
 40
0
 40
0
 40
0
 40
0
 40
1
 40
1
 40
1
 40
1
 10
-390.365220
 20
808.028600
 30
0.0
 10
-385.662830
 20
847.624900
 30
0.0
 10
-382.979150
 20
872.378100
 30
0.0
 10
-377.407140
 20
927.548600
 30
0.0
  0
SPLINE
  5
112
100
AcDbEntity
  8
Image
 62
7
100
AcDbSpline
 70
8
 71
3
 72
8
 73
4
 74
0
 40
0
 40
0
 40
0
 40
0
 40
1
 40
1
 40
1
 40
1
 10
-377.407140
 20
927.548600
 30
0.0
 10
-368.955740
 20
1011.229000
 30
0.0
 10
-365.462060
 20
1042.023000
 30
0.0
 10
-360.579750
 20
1075.868600
 30
0.0
  0
SPLINE
  5
113
100
AcDbEntity
  8
Image
 62
7
100
AcDbSpline
 70
8
 71
3
 72
8
 73
4
 74
0
 40
0
 40
0
 40
0
 40
0
 40
1
 40
1
 40
1
 40
1
 10
-360.579750
 20
1075.868600
 30
0.0
 10
-355.466130
 20
1111.317700
 30
0.0
 10
-351.022170
 20
1133.374300
 30
0.0
 10
-343.672120
 20
1159.785700
 30
0.0
  0
SPLINE
  5
114
100
AcDbEntity
  8
Image
 62
7
100
AcDbSpline
 70
8
 71
3
 72
8
 73
4
 74
0
 40
0
 40
0
 40
0
 40
0
 40
1
 40
1
 40
1
 40
1
 10
-343.672120
 20
1159.785700
 30
0.0
 10
-321.554360
 20
1239.262800
 30
0.0
 10
-292.741280
 20
1306.172800
 30
0.0
 10
-256.615750
 20
1361.948600
 30
0.0
  0
SPLINE
  5
115
100
AcDbEntity
  8
Image
 62
7
100
AcDbSpline
 70
8
 71
3
 72
8
 73
4
 74
0
 40
0
 40
0
 40
0
 40
0
 40
1
 40
1
 40
1
 40
1
 10
-256.615750
 20
1361.948600
 30
0.0
 10
-245.207940
 20
1379.561600
 30
0.0
 10
-231.849110
 20
1397.483100
 30
0.0
 10
-218.689430
 20
1412.828600
 30
0.0
  0
SPLINE
  5
116
100
AcDbEntity
  8
Image
 62
7
100
AcDbSpline
 70
8
 71
3
 72
8
 73
4
 74
0
 40
0
 40
0
 40
0
 40
0
 40
1
 40
1
 40
1
 40
1
 10
-218.689430
 20
1412.828600
 30
0.0
 10
-209.391270
 20
1423.671100
 30
0.0
 10
-194.072570
 20
1439.488600
 30
0.0
 10
-184.275640
 20
1448.363000
 30
0.0
  0
SPLINE
  5
117
100
AcDbEntity
  8
Image
 62
7
100
AcDbSpline
 70
8
 71
3
 72
8
 73
4
 74
0
 40
0
 40
0
 40
0
 40
0
 40
1
 40
1
 40
1
 40
1
 10
-184.275640
 20
1448.363000
 30
0.0
 10
-164.756490
 20
1466.044100
 30
0.0
 10
-145.188890
 20
1480.353200
 30
0.0
 10
-123.399740
 20
1492.879400
 30
0.0
  0
SPLINE
  5
118
100
AcDbEntity
  8
Image
 62
7
100
AcDbSpline
 70
8
 71
3
 72
8
 73
4
 74
0
 40
0
 40
0
 40
0
 40
0
 40
1
 40
1
 40
1
 40
1
 10
-123.399740
 20
1492.879400
 30
0.0
 10
-115.916050
 20
1497.181700
 30
0.0
 10
-99.493212
 20
1505.353600
 30
0.0
 10
-91.648929
 20
1508.678400
 30
0.0
  0
SPLINE
  5
119
100
AcDbEntity
  8
Image
 62
7
100
AcDbSpline
 70
8
 71
3
 72
8
 73
4
 74
0
 40
0
 40
0
 40
0
 40
0
 40
1
 40
1
 40
1
 40
1
 10
-91.648929
 20
1508.678400
 30
0.0
 10
-56.272229
 20
1523.673000
 30
0.0
 10
-18.253309
 20
1531.376600
 30
0.0
 10
10.111071
 20
1529.297500
 30
0.0
  0
SPLINE
  5
11a
100
AcDbEntity
  8
Image
 62
7
100
AcDbSpline
 70
8
 71
3
 72
8
 73
4
 74
0
 40
0
 40
0
 40
0
 40
0
 40
1
 40
1
 40
1
 40
1
 10
10.111071
 20
1529.297500
 30
0.0
 10
56.950131
 20
1525.864200
 30
0.0
 10
108.042220
 20
1505.883100
 30
0.0
 10
152.031060
 20
1473.795400
 30
0.0
  0
SPLINE
  5
11b
100
AcDbEntity
  8
Image
 62
7
100
AcDbSpline
 70
8
 71
3
 72
8
 73
4
 74
0
 40
0
 40
0
 40
0
 40
0
 40
1
 40
1
 40
1
 40
1
 10
152.031060
 20
1473.795400
 30
0.0
 10
167.870230
 20
1462.241600
 30
0.0
 10
179.962930
 20
1451.813800
 30
0.0
 10
195.249870
 20
1436.527100
 30
0.0
  0
SPLINE
  5
11c
100
AcDbEntity
  8
Image
 62
7
100
AcDbSpline
 70
8
 71
3
 72
8
 73
4
 74
0
 40
0
 40
0
 40
0
 40
0
 40
1
 40
1
 40
1
 40
1
 10
195.249870
 20
1436.527100
 30
0.0
 10
216.384370
 20
1415.393100
 30
0.0
 10
232.873530
 20
1395.136800
 30
0.0
 10
250.749310
 20
1368.348600
 30
0.0
  0
SPLINE
  5
11d
100
AcDbEntity
  8
Image
 62
7
100
AcDbSpline
 70
8
 71
3
 72
8
 73
4
 74
0
 40
0
 40
0
 40
0
 40
0
 40
1
 40
1
 40
1
 40
1
 10
250.749310
 20
1368.348600
 30
0.0
 10
288.794680
 20
1311.334600
 30
0.0
 10
318.689860
 20
1242.857000
 30
0.0
 10
341.834980
 20
1159.708600
 30
0.0
  0
SPLINE
  5
11e
100
AcDbEntity
  8
Image
 62
7
100
AcDbSpline
 70
8
 71
3
 72
8
 73
4
 74
0
 40
0
 40
0
 40
0
 40
0
 40
1
 40
1
 40
1
 40
1
 10
341.834980
 20
1159.708600
 30
0.0
 10
349.159880
 20
1133.394000
 30
0.0
 10
353.612800
 20
1111.286200
 30
0.0
 10
358.721870
 20
1075.868600
 30
0.0
  0
SPLINE
  5
11f
100
AcDbEntity
  8
Image
 62
7
100
AcDbSpline
 70
8
 71
3
 72
8
 73
4
 74
0
 40
0
 40
0
 40
0
 40
0
 40
1
 40
1
 40
1
 40
1
 10
358.721870
 20
1075.868600
 30
0.0
 10
363.655730
 20
1041.665700
 30
0.0
 10
367.016930
 20
1012.005600
 30
0.0
 10
375.711440
 20
925.948600
 30
0.0
  0
SPLINE
  5
120
100
AcDbEntity
  8
Image
 62
7
100
AcDbSpline
 70
8
 71
3
 72
8
 73
4
 74
0
 40
0
 40
0
 40
0
 40
0
 40
1
 40
1
 40
1
 40
1
 10
375.711440
 20
925.948600
 30
0.0
 10
381.144240
 20
872.175500
 30
0.0
 10
383.843900
 20
847.296900
 30
0.0
 10
388.507340
 20
808.028600
 30
0.0
  0
SPLINE
  5
121
100
AcDbEntity
  8
Image
 62
7
100
AcDbSpline
 70
8
 71
3
 72
8
 73
4
 74
0
 40
0
 40
0
 40
0
 40
0
 40
1
 40
1
 40
1
 40
1
 10
388.507340
 20
808.028600
 30
0.0
 10
399.062070
 20
719.152700
 30
0.0
 10
404.205310
 20
634.638500
 30
0.0
 10
406.774050
 20
507.869300
 30
0.0
  0
SPLINE
  5
122
100
AcDbEntity
  8
Image
 62
7
100
AcDbSpline
 70
8
 71
3
 72
8
 73
4
 74
0
 40
0
 40
0
 40
0
 40
0
 40
1
 40
1
 40
1
 40
1
 10
406.774050
 20
507.869300
 30
0.0
 10
407.654860
 20
464.400400
 30
0.0
 10
407.478230
 20
363.494900
 30
0.0
 10
406.422010
 20
306.749300
 30
0.0
  0
SPLINE
  5
123
100
AcDbEntity
  8
Image
 62
7
100
AcDbSpline
 70
8
 71
3
 72
8
 73
4
 74
0
 40
0
 40
0
 40
0
 40
0
 40
1
 40
1
 40
1
 40
1
 10
406.422010
 20
306.749300
 30
0.0
 10
403.766310
 20
164.071700
 30
0.0
 10
396.633840
 20
8.706800
 30
0.0
 10
386.273950
 20
-132.130700
 30
0.0
  0
SPLINE
  5
124
100
AcDbEntity
  8
Image
 62
7
100
AcDbSpline
 70
8
 71
3
 72
8
 73
4
 74
0
 40
0
 40
0
 40
0
 40
0
 40
1
 40
1
 40
1
 40
1
 10
386.273950
 20
-132.130700
 30
0.0
 10
383.872670
 20
-164.774900
 30
0.0
 10
380.532260
 20
-232.801800
 30
0.0
 10
379.069360
 20
-278.850700
 30
0.0
  0
SPLINE
  5
125
100
AcDbEntity
  8
Image
 62
7
100
AcDbSpline
 70
8
 71
3
 72
8
 73
4
 74
0
 40
0
 40
0
 40
0
 40
0
 40
1
 40
1
 40
1
 40
1
 10
379.069360
 20
-278.850700
 30
0.0
 10
378.968720
 20
-282.018700
 30
0.0
 10
378.386990
 20
-304.914700
 30
0.0
 10
377.776620
 20
-329.730700
 30
0.0
  0
SPLINE
  5
126
100
AcDbEntity
  8
Image
 62
7
100
AcDbSpline
 70
8
 71
3
 72
8
 73
4
 74
0
 40
0
 40
0
 40
0
 40
0
 40
1
 40
1
 40
1
 40
1
 10
377.776620
 20
-329.730700
 30
0.0
 10
376.418790
 20
-384.936500
 30
0.0
 10
373.311750
 20
-506.136900
 30
0.0
 10
371.390290
 20
-578.850700
 30
0.0
  0
LWPOLYLINE
  5
127
100
AcDbEntity
  8
Image
 62
7
100
AcDbPolyline
 90
3
 70
0
 10
-369.900190
 20
-661.570700
 30
0.0
 10
-371.825140
 20
-632.770700
 30
0.0
 10
-373.245320
 20
-579.010700
 30
0.0
  0
SPLINE
  5
128
100
AcDbEntity
  8
Image
 62
7
100
AcDbSpline
 70
8
 71
3
 72
8
 73
4
 74
0
 40
0
 40
0
 40
0
 40
0
 40
1
 40
1
 40
1
 40
1
 10
368.041410
 20
-661.570700
 30
0.0
 10
362.715270
 20
-741.295000
 30
0.0
 10
359.322350
 20
-788.643400
 30
0.0
 10
356.816810
 20
-818.210700
 30
0.0
  0
SPLINE
  5
129
100
AcDbEntity
  8
Image
 62
7
100
AcDbSpline
 70
8
 71
3
 72
8
 73
4
 74
0
 40
0
 40
0
 40
0
 40
0
 40
1
 40
1
 40
1
 40
1
 10
356.816810
 20
-818.210700
 30
0.0
 10
356.287350
 20
-824.458700
 30
0.0
 10
355.720710
 20
-831.226700
 30
0.0
 10
355.557590
 20
-833.250700
 30
0.0
  0
SPLINE
  5
12a
100
AcDbEntity
  8
Image
 62
7
100
AcDbSpline
 70
8
 71
3
 72
8
 73
4
 74
0
 40
0
 40
0
 40
0
 40
0
 40
1
 40
1
 40
1
 40
1
 10
355.557590
 20
-833.250700
 30
0.0
 10
354.987270
 20
-840.327600
 30
0.0
 10
354.838620
 20
-856.905300
 30
0.0
 10
355.198920
 20
-873.250700
 30
0.0
  0
SPLINE
  5
12b
100
AcDbEntity
  8
Image
 62
7
100
AcDbSpline
 70
8
 71
3
 72
8
 73
4
 74
0
 40
0
 40
0
 40
0
 40
0
 40
1
 40
1
 40
1
 40
1
 10
355.198920
 20
-873.250700
 30
0.0
 10
356.120620
 20
-915.065200
 30
0.0
 10
357.882400
 20
-955.031200
 30
0.0
 10
364.184570
 20
-1077.090700
 30
0.0
  0
SPLINE
  5
12c
100
AcDbEntity
  8
Image
 62
7
100
AcDbSpline
 70
8
 71
3
 72
8
 73
4
 74
0
 40
0
 40
0
 40
0
 40
0
 40
1
 40
1
 40
1
 40
1
 10
364.184570
 20
-1077.090700
 30
0.0
 10
368.445770
 20
-1159.620900
 30
0.0
 10
369.614490
 20
-1186.981600
 30
0.0
 10
369.727300
 20
-1206.850700
 30
0.0
  0
SPLINE
  5
12d
100
AcDbEntity
  8
Image
 62
7
100
AcDbSpline
 70
8
 71
3
 72
8
 73
4
 74
0
 40
0
 40
0
 40
0
 40
0
 40
1
 40
1
 40
1
 40
1
 10
369.727300
 20
-1206.850700
 30
0.0
 10
369.802100
 20
-1220.021000
 30
0.0
 10
368.789670
 20
-1250.951100
 30
0.0
 10
367.700540
 20
-1268.770700
 30
0.0
  0
SPLINE
  5
12e
100
AcDbEntity
  8
Image
 62
7
100
AcDbSpline
 70
8
 71
3
 72
8
 73
4
 74
0
 40
0
 40
0
 40
0
 40
0
 40
1
 40
1
 40
1
 40
1
 10
367.700540
 20
-1268.770700
 30
0.0
 10
362.614440
 20
-1351.985500
 30
0.0
 10
340.106940
 20
-1411.971000
 30
0.0
 10
299.016080
 20
-1451.823800
 30
0.0
  0
SPLINE
  5
12f
100
AcDbEntity
  8
Image
 62
7
100
AcDbSpline
 70
8
 71
3
 72
8
 73
4
 74
0
 40
0
 40
0
 40
0
 40
0
 40
1
 40
1
 40
1
 40
1
 10
299.016080
 20
-1451.823800
 30
0.0
 10
279.732850
 20
-1470.526100
 30
0.0
 10
257.555880
 20
-1483.865400
 30
0.0
 10
229.311060
 20
-1493.750900
 30
0.0
  0
SPLINE
  5
130
100
AcDbEntity
  8
Image
 62
7
100
AcDbSpline
 70
8
 71
3
 72
8
 73
4
 74
0
 40
0
 40
0
 40
0
 40
0
 40
1
 40
1
 40
1
 40
1
 10
229.311060
 20
-1493.750900
 30
0.0
 10
180.034660
 20
-1510.997300
 30
0.0
 10
111.484390
 20
-1523.904200
 30
0.0
 10
41.631071
 20
-1529.088000
 30
0.0
  0
SPLINE
  5
131
100
AcDbEntity
  8
Image
 62
7
100
AcDbSpline
 70
8
 71
3
 72
8
 73
4
 74
0
 40
0
 40
0
 40
0
 40
0
 40
1
 40
1
 40
1
 40
1
 10
41.631071
 20
-1529.088000
 30
0.0
 10
21.496621
 20
-1530.582100
 30
0.0
 10
-2.654929
 20
-1531.182100
 30
0.0
 10
-15.968929
 20
-1530.518800
 30
0.0
  0
LWPOLYLINE
  5
132
100
AcDbEntity
  8
Image
 62
7
100
AcDbPolyline
 90
3
 70
0
 10
371.390290
 20
-578.850700
 30
0.0
 10
369.965450
 20
-632.770700
 30
0.0
 10
368.041410
 20
-661.570700
 30
0.0
  0
LWPOLYLINE
  5
133
100
AcDbEntity
  8
Image
 62
7
100
AcDbPolyline
 90
1
 70
1
 10
-15.968929
 20
-1530.518800
 30
0.0
  0
ENDSEC
  0
SECTION
  2
OBJECTS
  0
DICTIONARY
  5
C
330
0
100
AcDbDictionary
  3
ACAD_GROUP
350
D
  3
ACAD_MLINESTYLE
350
17
  0
DICTIONARY
  5
D
330
C
100
AcDbDictionary
  0
DICTIONARY
  5
1A
330
C
100
AcDbDictionary
  0
DICTIONARY
  5
17
330
C
100
AcDbDictionary
  3
STANDARD
350
18
  0
DICTIONARY
  5
19
330
C
100
AcDbDictionary
  0
ENDSEC
  0
EOF
