  0
SECTION
  2
HEADER
  9
$ACADVER
  1
AC1014
  9
$HANDSEED
  5
FFFF
  9
$INSUNITS
 70
     0
  9
$MEASUREMENT
 70
     1
  0
ENDSEC
  0
SECTION
  2
TABLES
  0
TABLE
  2
VPORT
  5
8
330
0
100
AcDbSymbolTable
 70
     4
  0
VPORT
  5
2E
330
8
100
AcDbSymbolTableRecord
100
AcDbViewportTableRecord
  2
*ACTIVE
 70
     0
 10
0.0
 20
0.0
 11
1.0
 21
1.0
 12
210.0
 22
148.5
 13
0.0
 23
0.0
 14
10.0
 24
10.0
 15
10.0
 25
10.0
 16
0.0
 26
0.0
 36
1.0
 17
0.0
 27
0.0
 37
0.0
 40
341.0
 41
1.24
 42
50.0
 43
0.0
 44
0.0
 50
0.0
 51
0.0
 71
     0
 72
   100
 73
     1
 74
     3
 75
     0
 76
     0
 77
     0
 78
     0
  0
ENDTAB
  0
TABLE
  2
LTYPE
  5
5
330
0
100
AcDbSymbolTable
 70
     1
  0
LTYPE
  5
14
330
5
100
AcDbSymbolTableRecord
100
AcDbLinetypeTableRecord
  2
BYBLOCK
 70
     0
  3

 72
    65
 73
     0
 40
0.0
  0
LTYPE
  5
15
330
5
100
AcDbSymbolTableRecord
100
AcDbLinetypeTableRecord
  2
BYLAYER
 70
     0
  3

 72
    65
 73
     0
 40
0.0
  0
LTYPE
  5
16
330
5
100
AcDbSymbolTableRecord
100
AcDbLinetypeTableRecord
  2
CONTINUOUS
 70
     0
  3
Solid line
 72
    65
 73
     0
 40
0.0
  0
ENDTAB
  0
TABLE
  2
LAYER
  5
2
100
AcDbSymbolTable
 70
2
  0
LAYER
  5
50
100
AcDbSymbolTableRecord
100
AcDbLayerTableRecord
  2
0
 70
0
  6
CONTINUOUS
  0
LAYER
  5
51
100
AcDbSymbolTableRecord
100
AcDbLayerTableRecord
  2
Image
 70
0
  6
CONTINUOUS
  0
ENDTAB
  0
TABLE
  2
STYLE
  5
3
330
0
100
AcDbSymbolTable
 70
     1
  0
STYLE
  5
11
330
3
100
AcDbSymbolTableRecord
100
AcDbTextStyleTableRecord
  2
STANDARD
 70
     0
 40
0.0
 41
1.0
 50
0.0
 71
     0
 42
2.5
  3
txt
  4

  0
ENDTAB
  0
TABLE
  2
VIEW
  5
6
330
0
100
AcDbSymbolTable
 70
     0
  0
ENDTAB
  0
TABLE
  2
UCS
  5
7
330
0
100
AcDbSymbolTable
 70
     0
  0
ENDTAB
  0
TABLE
  2
APPID
  5
9
330
0
100
AcDbSymbolTable
 70
     2
  0
APPID
  5
12
330
9
100
AcDbSymbolTableRecord
100
AcDbRegAppTableRecord
  2
ACAD
 70
     0
  0
ENDTAB
  0
TABLE
  2
DIMSTYLE
  5
A
330
0
100
AcDbSymbolTable
 70
     1
  0
DIMSTYLE
105
27
330
A
100
AcDbSymbolTableRecord
100
AcDbDimStyleTableRecord
  2
ISO-25
 70
     0
  3

  4

  5

  6

  7

 40
1.0
 41
2.5
 42
0.625
 43
3.75
 44
1.25
 45
0.0
 46
0.0
 47
0.0
 48
0.0
140
2.5
141
2.5
142
0.0
143
0.03937007874016
144
1.0
145
0.0
146
1.0
147
0.625
 71
     0
 72
     0
 73
     0
 74
     0
 75
     0
 76
     0
 77
     1
 78
     8
170
     0
171
     3
172
     1
173
     0
174
     0
175
     0
176
     0
177
     0
178
     0
270
     2
271
     2
272
     2
273
     2
274
     3
340
11
275
     0
280
     0
281
     0
282
     0
283
     0
284
     8
285
     0
286
     0
287
     3
288
     0
  0
ENDTAB
  0
TABLE
  2
BLOCK_RECORD
  5
1
330
0
100
AcDbSymbolTable
 70
     1
  0
BLOCK_RECORD
  5
1F
330
1
100
AcDbSymbolTableRecord
100
AcDbBlockTableRecord
  2
*MODEL_SPACE
  0
BLOCK_RECORD
  5
1B
330
1
100
AcDbSymbolTableRecord
100
AcDbBlockTableRecord
  2
*PAPER_SPACE
  0
ENDTAB
  0
ENDSEC
  0
SECTION
  2
BLOCKS
  0
BLOCK
  5
20
330
1F
100
AcDbEntity
  8
0
100
AcDbBlockBegin
  2
*MODEL_SPACE
 70
     0
 10
0.0
 20
0.0
 30
0.0
  3
*MODEL_SPACE
  1

  0
ENDBLK
  5
21
330
1F
100
AcDbEntity
  8
0
100
AcDbBlockEnd
  0
BLOCK
  5
1C
330
1B
100
AcDbEntity
 67
     1
  8
0
100
AcDbBlockBegin
  2
*PAPER_SPACE
  1

  0
ENDBLK
  5
1D
330
1B
100
AcDbEntity
 67
     1
  8
0
100
AcDbBlockEnd
  0
ENDSEC
  0
SECTION
  2
ENTITIES
  0
SPLINE
  5
100
100
AcDbEntity
  8
Image
 62
7
100
AcDbSpline
 70
8
 71
3
 72
8
 73
4
 74
0
 40
0
 40
0
 40
0
 40
0
 40
1
 40
1
 40
1
 40
1
 10
-22.927360
 20
-1464.697011
 30
0.0
 10
-111.931460
 20
-1462.724011
 30
0.0
 10
-218.263660
 20
-1452.821211
 30
0.0
 10
-258.447360
 20
-1442.762711
 30
0.0
  0
SPLINE
  5
101
100
AcDbEntity
  8
Image
 62
7
100
AcDbSpline
 70
8
 71
3
 72
8
 73
4
 74
0
 40
0
 40
0
 40
0
 40
0
 40
1
 40
1
 40
1
 40
1
 10
-258.447360
 20
-1442.762711
 30
0.0
 10
-341.963860
 20
-1421.857611
 30
0.0
 10
-395.920664
 20
-1374.265111
 30
0.0
 10
-416.218264
 20
-1303.601510
 30
0.0
  0
SPLINE
  5
102
100
AcDbEntity
  8
Image
 62
7
100
AcDbSpline
 70
8
 71
3
 72
8
 73
4
 74
0
 40
0
 40
0
 40
0
 40
0
 40
1
 40
1
 40
1
 40
1
 10
-416.218264
 20
-1303.601510
 30
0.0
 10
-436.786464
 20
-1231.995710
 30
0.0
 10
-436.784364
 20
-1188.043310
 30
0.0
 10
-416.205264
 20
-1023.441510
 30
0.0
  0
SPLINE
  5
103
100
AcDbEntity
  8
Image
 62
7
100
AcDbSpline
 70
8
 71
3
 72
8
 73
4
 74
0
 40
0
 40
0
 40
0
 40
0
 40
1
 40
1
 40
1
 40
1
 10
-416.205264
 20
-1023.441510
 30
0.0
 10
-403.457664
 20
-921.480110
 30
0.0
 10
-398.470264
 20
-853.953510
 30
0.0
 10
-397.126264
 20
-765.124110
 30
0.0
  0
SPLINE
  5
104
100
AcDbEntity
  8
Image
 62
7
100
AcDbSpline
 70
8
 71
3
 72
8
 73
4
 74
0
 40
0
 40
0
 40
0
 40
0
 40
1
 40
1
 40
1
 40
1
 10
-397.126264
 20
-765.124110
 30
0.0
 10
-395.886564
 20
-683.185410
 30
0.0
 10
-398.769164
 20
-629.513310
 30
0.0
 10
-415.408764
 20
-424.721500
 30
0.0
  0
SPLINE
  5
105
100
AcDbEntity
  8
Image
 62
7
100
AcDbSpline
 70
8
 71
3
 72
8
 73
4
 74
0
 40
0
 40
0
 40
0
 40
0
 40
1
 40
1
 40
1
 40
1
 10
-415.408764
 20
-424.721500
 30
0.0
 10
-421.933664
 20
-344.416300
 30
0.0
 10
-422.770464
 20
-334.033400
 30
0.0
 10
-423.713364
 20
-321.681500
 30
0.0
  0
SPLINE
  5
106
100
AcDbEntity
  8
Image
 62
7
100
AcDbSpline
 70
8
 71
3
 72
8
 73
4
 74
0
 40
0
 40
0
 40
0
 40
0
 40
1
 40
1
 40
1
 40
1
 10
-423.713364
 20
-321.681500
 30
0.0
 10
-424.244064
 20
-314.729500
 30
0.0
 10
-425.043264
 20
-303.065500
 30
0.0
 10
-425.489264
 20
-295.761500
 30
0.0
  0
SPLINE
  5
107
100
AcDbEntity
  8
Image
 62
7
100
AcDbSpline
 70
8
 71
3
 72
8
 73
4
 74
0
 40
0
 40
0
 40
0
 40
0
 40
1
 40
1
 40
1
 40
1
 10
-425.489264
 20
-295.761500
 30
0.0
 10
-427.614564
 20
-260.959200
 30
0.0
 10
-431.586464
 20
-214.720700
 30
0.0
 10
-444.222264
 20
-77.681500
 30
0.0
  0
SPLINE
  5
108
100
AcDbEntity
  8
Image
 62
7
100
AcDbSpline
 70
8
 71
3
 72
8
 73
4
 74
0
 40
0
 40
0
 40
0
 40
0
 40
1
 40
1
 40
1
 40
1
 10
-444.222264
 20
-77.681500
 30
0.0
 10
-446.510464
 20
-52.865500
 30
0.0
 10
-450.104064
 20
-14.489500
 30
0.0
 10
-452.208064
 20
7.598500
 30
0.0
  0
SPLINE
  5
109
100
AcDbEntity
  8
Image
 62
7
100
AcDbSpline
 70
8
 71
3
 72
8
 73
4
 74
0
 40
0
 40
0
 40
0
 40
0
 40
1
 40
1
 40
1
 40
1
 10
-452.208064
 20
7.598500
 30
0.0
 10
-464.079364
 20
132.223600
 30
0.0
 10
-469.475564
 20
208.334100
 30
0.0
 10
-472.048664
 20
287.438500
 30
0.0
  0
SPLINE
  5
10a
100
AcDbEntity
  8
Image
 62
7
100
AcDbSpline
 70
8
 71
3
 72
8
 73
4
 74
0
 40
0
 40
0
 40
0
 40
0
 40
1
 40
1
 40
1
 40
1
 10
-472.048664
 20
287.438500
 30
0.0
 10
-472.723064
 20
308.173100
 30
0.0
 10
-473.057964
 20
316.602000
 30
0.0
 10
-473.809464
 20
331.758500
 30
0.0
  0
SPLINE
  5
10b
100
AcDbEntity
  8
Image
 62
7
100
AcDbSpline
 70
8
 71
3
 72
8
 73
4
 74
0
 40
0
 40
0
 40
0
 40
0
 40
1
 40
1
 40
1
 40
1
 10
-473.809464
 20
331.758500
 30
0.0
 10
-475.414664
 20
364.134400
 30
0.0
 10
-475.723864
 20
383.162500
 30
0.0
 10
-475.719964
 20
449.358500
 30
0.0
  0
SPLINE
  5
10c
100
AcDbEntity
  8
Image
 62
7
100
AcDbSpline
 70
8
 71
3
 72
8
 73
4
 74
0
 40
0
 40
0
 40
0
 40
0
 40
1
 40
1
 40
1
 40
1
 10
-475.719964
 20
449.358500
 30
0.0
 10
-475.719964
 20
514.941600
 30
0.0
 10
-475.191664
 20
551.581900
 30
0.0
 10
-473.482664
 20
605.678500
 30
0.0
  0
SPLINE
  5
10d
100
AcDbEntity
  8
Image
 62
7
100
AcDbSpline
 70
8
 71
3
 72
8
 73
4
 74
0
 40
0
 40
0
 40
0
 40
0
 40
1
 40
1
 40
1
 40
1
 10
-473.482664
 20
605.678500
 30
0.0
 10
-470.444464
 20
701.849900
 30
0.0
 10
-464.674864
 20
769.475000
 30
0.0
 10
-453.306764
 20
842.158500
 30
0.0
  0
SPLINE
  5
10e
100
AcDbEntity
  8
Image
 62
7
100
AcDbSpline
 70
8
 71
3
 72
8
 73
4
 74
0
 40
0
 40
0
 40
0
 40
0
 40
1
 40
1
 40
1
 40
1
 10
-453.306764
 20
842.158500
 30
0.0
 10
-447.891664
 20
876.780700
 30
0.0
 10
-437.579864
 20
921.908800
 30
0.0
 10
-420.329664
 20
986.478500
 30
0.0
  0
SPLINE
  5
10f
100
AcDbEntity
  8
Image
 62
7
100
AcDbSpline
 70
8
 71
3
 72
8
 73
4
 74
0
 40
0
 40
0
 40
0
 40
0
 40
1
 40
1
 40
1
 40
1
 10
-420.329664
 20
986.478500
 30
0.0
 10
-367.788860
 20
1183.145500
 30
0.0
 10
-288.797860
 20
1351.253200
 30
0.0
 10
-223.174460
 20
1406.062100
 30
0.0
  0
SPLINE
  5
110
100
AcDbEntity
  8
Image
 62
7
100
AcDbSpline
 70
8
 71
3
 72
8
 73
4
 74
0
 40
0
 40
0
 40
0
 40
0
 40
1
 40
1
 40
1
 40
1
 10
-223.174460
 20
1406.062100
 30
0.0
 10
-190.175460
 20
1433.622900
 30
0.0
 10
-142.779160
 20
1452.820300
 30
0.0
 10
-89.487360
 20
1460.210600
 30
0.0
  0
SPLINE
  5
111
100
AcDbEntity
  8
Image
 62
7
100
AcDbSpline
 70
8
 71
3
 72
8
 73
4
 74
0
 40
0
 40
0
 40
0
 40
0
 40
1
 40
1
 40
1
 40
1
 10
-89.487360
 20
1460.210600
 30
0.0
 10
-44.415760
 20
1466.461000
 30
0.0
 10
44.321040
 20
1466.461000
 30
0.0
 10
89.392640
 20
1460.210600
 30
0.0
  0
SPLINE
  5
112
100
AcDbEntity
  8
Image
 62
7
100
AcDbSpline
 70
8
 71
3
 72
8
 73
4
 74
0
 40
0
 40
0
 40
0
 40
0
 40
1
 40
1
 40
1
 40
1
 10
89.392640
 20
1460.210600
 30
0.0
 10
139.321440
 20
1453.286700
 30
0.0
 10
182.935740
 20
1436.506600
 30
0.0
 10
216.361340
 20
1411.360800
 30
0.0
  0
SPLINE
  5
113
100
AcDbEntity
  8
Image
 62
7
100
AcDbSpline
 70
8
 71
3
 72
8
 73
4
 74
0
 40
0
 40
0
 40
0
 40
0
 40
1
 40
1
 40
1
 40
1
 10
216.361340
 20
1411.360800
 30
0.0
 10
254.873240
 20
1382.388700
 30
0.0
 10
300.844840
 20
1310.716300
 30
0.0
 10
341.617840
 20
1216.078500
 30
0.0
  0
SPLINE
  5
114
100
AcDbEntity
  8
Image
 62
7
100
AcDbSpline
 70
8
 71
3
 72
8
 73
4
 74
0
 40
0
 40
0
 40
0
 40
0
 40
1
 40
1
 40
1
 40
1
 10
341.617840
 20
1216.078500
 30
0.0
 10
378.753140
 20
1129.884400
 30
0.0
 10
404.193140
 20
1052.467200
 30
0.0
 10
431.761790
 20
941.760000
 30
0.0
  0
SPLINE
  5
115
100
AcDbEntity
  8
Image
 62
7
100
AcDbSpline
 70
8
 71
3
 72
8
 73
4
 74
0
 40
0
 40
0
 40
0
 40
0
 40
1
 40
1
 40
1
 40
1
 10
431.761790
 20
941.760000
 30
0.0
 10
447.893090
 20
876.981300
 30
0.0
 10
452.437290
 20
853.376500
 30
0.0
 10
459.283790
 20
798.798500
 30
0.0
  0
SPLINE
  5
116
100
AcDbEntity
  8
Image
 62
7
100
AcDbSpline
 70
8
 71
3
 72
8
 73
4
 74
0
 40
0
 40
0
 40
0
 40
0
 40
1
 40
1
 40
1
 40
1
 10
459.283790
 20
798.798500
 30
0.0
 10
469.199890
 20
719.751300
 30
0.0
 10
472.638920
 20
661.989700
 30
0.0
 10
475.173520
 20
531.918500
 30
0.0
  0
SPLINE
  5
117
100
AcDbEntity
  8
Image
 62
7
100
AcDbSpline
 70
8
 71
3
 72
8
 73
4
 74
0
 40
0
 40
0
 40
0
 40
0
 40
1
 40
1
 40
1
 40
1
 10
475.173520
 20
531.918500
 30
0.0
 10
475.714920
 20
504.139500
 30
0.0
 10
475.918120
 20
420.336400
 30
0.0
 10
475.508120
 20
393.998500
 30
0.0
  0
SPLINE
  5
118
100
AcDbEntity
  8
Image
 62
7
100
AcDbSpline
 70
8
 71
3
 72
8
 73
4
 74
0
 40
0
 40
0
 40
0
 40
0
 40
1
 40
1
 40
1
 40
1
 10
475.508120
 20
393.998500
 30
0.0
 10
475.003720
 20
361.602300
 30
0.0
 10
474.755820
 20
353.510500
 30
0.0
 10
473.395620
 20
325.038500
 30
0.0
  0
SPLINE
  5
119
100
AcDbEntity
  8
Image
 62
7
100
AcDbSpline
 70
8
 71
3
 72
8
 73
4
 74
0
 40
0
 40
0
 40
0
 40
0
 40
1
 40
1
 40
1
 40
1
 10
473.395620
 20
325.038500
 30
0.0
 10
472.829020
 20
313.179400
 30
0.0
 10
472.422120
 20
302.440200
 30
0.0
 10
471.788990
 20
282.638500
 30
0.0
  0
SPLINE
  5
11a
100
AcDbEntity
  8
Image
 62
7
100
AcDbSpline
 70
8
 71
3
 72
8
 73
4
 74
0
 40
0
 40
0
 40
0
 40
0
 40
1
 40
1
 40
1
 40
1
 10
471.788990
 20
282.638500
 30
0.0
 10
469.453190
 20
209.584400
 30
0.0
 10
463.728790
 20
129.560000
 30
0.0
 10
452.114390
 20
7.598500
 30
0.0
  0
SPLINE
  5
11b
100
AcDbEntity
  8
Image
 62
7
100
AcDbSpline
 70
8
 71
3
 72
8
 73
4
 74
0
 40
0
 40
0
 40
0
 40
0
 40
1
 40
1
 40
1
 40
1
 10
452.114390
 20
7.598500
 30
0.0
 10
450.010990
 20
-14.489500
 30
0.0
 10
446.416690
 20
-52.865500
 30
0.0
 10
444.127190
 20
-77.681500
 30
0.0
  0
SPLINE
  5
11c
100
AcDbEntity
  8
Image
 62
7
100
AcDbSpline
 70
8
 71
3
 72
8
 73
4
 74
0
 40
0
 40
0
 40
0
 40
0
 40
1
 40
1
 40
1
 40
1
 10
444.127190
 20
-77.681500
 30
0.0
 10
431.659390
 20
-212.819600
 30
0.0
 10
427.494840
 20
-261.299600
 30
0.0
 10
425.393340
 20
-295.761500
 30
0.0
  0
SPLINE
  5
11d
100
AcDbEntity
  8
Image
 62
7
100
AcDbSpline
 70
8
 71
3
 72
8
 73
4
 74
0
 40
0
 40
0
 40
0
 40
0
 40
1
 40
1
 40
1
 40
1
 10
425.393340
 20
-295.761500
 30
0.0
 10
424.948040
 20
-303.065500
 30
0.0
 10
424.149340
 20
-314.729500
 30
0.0
 10
423.618640
 20
-321.681500
 30
0.0
  0
SPLINE
  5
11e
100
AcDbEntity
  8
Image
 62
7
100
AcDbSpline
 70
8
 71
3
 72
8
 73
4
 74
0
 40
0
 40
0
 40
0
 40
0
 40
1
 40
1
 40
1
 40
1
 10
423.618640
 20
-321.681500
 30
0.0
 10
422.678240
 20
-334.000800
 30
0.0
 10
421.923340
 20
-343.367800
 30
0.0
 10
415.314740
 20
-424.721500
 30
0.0
  0
SPLINE
  5
11f
100
AcDbEntity
  8
Image
 62
7
100
AcDbSpline
 70
8
 71
3
 72
8
 73
4
 74
0
 40
0
 40
0
 40
0
 40
0
 40
1
 40
1
 40
1
 40
1
 10
415.314740
 20
-424.721500
 30
0.0
 10
398.647540
 20
-629.899210
 30
0.0
 10
395.785940
 20
-683.204910
 30
0.0
 10
397.032840
 20
-765.273210
 30
0.0
  0
SPLINE
  5
120
100
AcDbEntity
  8
Image
 62
7
100
AcDbSpline
 70
8
 71
3
 72
8
 73
4
 74
0
 40
0
 40
0
 40
0
 40
0
 40
1
 40
1
 40
1
 40
1
 10
397.032840
 20
-765.273210
 30
0.0
 10
398.384440
 20
-854.228410
 30
0.0
 10
403.332240
 20
-921.179310
 30
0.0
 10
416.112040
 20
-1023.441510
 30
0.0
  0
SPLINE
  5
121
100
AcDbEntity
  8
Image
 62
7
100
AcDbSpline
 70
8
 71
3
 72
8
 73
4
 74
0
 40
0
 40
0
 40
0
 40
0
 40
1
 40
1
 40
1
 40
1
 10
416.112040
 20
-1023.441510
 30
0.0
 10
431.433390
 20
-1146.039710
 30
0.0
 10
434.200790
 20
-1188.943410
 30
0.0
 10
429.693840
 20
-1234.001510
 30
0.0
  0
SPLINE
  5
122
100
AcDbEntity
  8
Image
 62
7
100
AcDbSpline
 70
8
 71
3
 72
8
 73
4
 74
0
 40
0
 40
0
 40
0
 40
0
 40
1
 40
1
 40
1
 40
1
 10
429.693840
 20
-1234.001510
 30
0.0
 10
426.591540
 20
-1265.017110
 30
0.0
 10
418.026240
 20
-1302.552710
 30
0.0
 10
408.846140
 20
-1325.361510
 30
0.0
  0
SPLINE
  5
123
100
AcDbEntity
  8
Image
 62
7
100
AcDbSpline
 70
8
 71
3
 72
8
 73
4
 74
0
 40
0
 40
0
 40
0
 40
0
 40
1
 40
1
 40
1
 40
1
 10
408.846140
 20
-1325.361510
 30
0.0
 10
385.954940
 20
-1382.236911
 30
0.0
 10
331.999540
 20
-1424.328011
 30
0.0
 10
258.352640
 20
-1442.762711
 30
0.0
  0
SPLINE
  5
124
100
AcDbEntity
  8
Image
 62
7
100
AcDbSpline
 70
8
 71
3
 72
8
 73
4
 74
0
 40
0
 40
0
 40
0
 40
0
 40
1
 40
1
 40
1
 40
1
 10
258.352640
 20
-1442.762711
 30
0.0
 10
208.292440
 20
-1455.293311
 30
0.0
 10
63.215040
 20
-1466.606511
 30
0.0
 10
-22.927360
 20
-1464.697011
 30
0.0
  0
LWPOLYLINE
  5
125
100
AcDbEntity
  8
Image
 62
7
100
AcDbPolyline
 90
1
 70
1
 10
-22.927360
 20
-1464.697011
 30
0.0
  0
ENDSEC
  0
SECTION
  2
OBJECTS
  0
DICTIONARY
  5
C
330
0
100
AcDbDictionary
  3
ACAD_GROUP
350
D
  3
ACAD_MLINESTYLE
350
17
  0
DICTIONARY
  5
D
330
C
100
AcDbDictionary
  0
DICTIONARY
  5
1A
330
C
100
AcDbDictionary
  0
DICTIONARY
  5
17
330
C
100
AcDbDictionary
  3
STANDARD
350
18
  0
DICTIONARY
  5
19
330
C
100
AcDbDictionary
  0
ENDSEC
  0
EOF
