999
"DXF R12 Output" (www.mydxf.blogspot.com)
 0 
SECTION
 2 
HEADER
 9 
$ACADVER
 1 
AC1009
 9 
$EXTMIN
 10 
 0 
 20 
 0 
 9 
$EXTMAX
 10 
 8.5 
 20 
 11 
 0 
ENDSEC
 0 
SECTION
 2 
ENTITIES
0
POLYLINE
8
Livello 1
62
7
70
0
10
0.000000
20
0.000000
66
1
0
VERTEX
8
Livello 1
10
87.375153
20
217.238671
70
0
0
VERTEX
8
Livello 1
10
88.019627
20
227.877978
70
0
0
VERTEX
8
Livello 1
10
89.154837
20
240.573284
70
0
0
VERTEX
8
Livello 1
10
90.488187
20
252.416128
70
0
0
VERTEX
8
Livello 1
10
91.727083
20
260.498047
70
0
0
VERTEX
8
Livello 1
10
92.664142
20
264.198253
70
0
0
VERTEX
8
Livello 1
10
93.772699
20
266.916915
70
0
0
VERTEX
8
Livello 1
10
94.429919
20
267.980227
70
0
0
VERTEX
8
Livello 1
10
95.176368
20
268.884626
70
0
0
VERTEX
8
Livello 1
10
96.027499
20
269.658937
70
0
0
VERTEX
8
Livello 1
10
96.998763
20
270.331982
70
0
0
VERTEX
8
Livello 1
10
98.137372
20
270.878662
70
0
0
VERTEX
8
Livello 1
10
99.654910
20
271.396116
70
0
0
VERTEX
8
Livello 1
10
103.161610
20
272.147403
70
0
0
VERTEX
8
Livello 1
10
107.064517
20
272.371795
70
0
0
VERTEX
8
Livello 1
10
112.376008
20
272.359196
70
0
0
VERTEX
8
Livello 1
10
117.492712
20
272.144547
70
0
0
VERTEX
8
Livello 1
10
120.811260
20
271.762789
70
0
0
VERTEX
8
Livello 1
10
122.701284
20
271.218813
70
0
0
VERTEX
8
Livello 1
10
124.263620
20
270.567607
70
0
0
VERTEX
8
Livello 1
10
125.543198
20
269.786524
70
0
0
VERTEX
8
Livello 1
10
126.584950
20
268.852921
70
0
0
VERTEX
8
Livello 1
10
127.559873
20
267.629394
70
0
0
VERTEX
8
Livello 1
10
128.394407
20
266.159769
70
0
0
VERTEX
8
Livello 1
10
129.119548
20
264.310409
70
0
0
VERTEX
8
Livello 1
10
129.766292
20
261.947680
70
0
0
VERTEX
8
Livello 1
10
130.365636
20
258.937944
70
0
0
VERTEX
8
Livello 1
10
130.948575
20
255.147565
70
0
0
VERTEX
8
Livello 1
10
132.189220
20
244.690337
70
0
0
VERTEX
8
Livello 1
10
133.488709
20
231.111001
70
0
0
VERTEX
8
Livello 1
10
134.227298
20
218.619067
70
0
0
VERTEX
8
Livello 1
10
134.520690
20
204.196986
70
0
0
VERTEX
8
Livello 1
10
134.484590
20
184.827210
70
0
0
VERTEX
8
Livello 1
10
134.312735
20
169.147517
70
0
0
VERTEX
8
Livello 1
10
133.949052
20
158.105684
70
0
0
VERTEX
8
Livello 1
10
133.213621
20
148.286851
70
0
0
VERTEX
8
Livello 1
10
131.926520
20
136.276160
70
0
0
VERTEX
8
Livello 1
10
130.525819
20
125.735625
70
0
0
VERTEX
8
Livello 1
10
129.805847
20
121.943665
70
0
0
VERTEX
8
Livello 1
10
129.020064
20
118.972290
70
0
0
VERTEX
8
Livello 1
10
128.128922
20
116.697783
70
0
0
VERTEX
8
Livello 1
10
127.092875
20
114.996428
70
0
0
VERTEX
8
Livello 1
10
125.872373
20
113.744509
70
0
0
VERTEX
8
Livello 1
10
124.427870
20
112.818310
70
0
0
VERTEX
8
Livello 1
10
122.191285
20
112.005360
70
0
0
VERTEX
8
Livello 1
10
119.206131
20
111.399774
70
0
0
VERTEX
8
Livello 1
10
115.702478
20
111.005682
70
0
0
VERTEX
8
Livello 1
10
111.910395
20
110.827213
70
0
0
VERTEX
8
Livello 1
10
108.059951
20
110.868496
70
0
0
VERTEX
8
Livello 1
10
104.381215
20
111.133662
70
0
0
VERTEX
8
Livello 1
10
101.104256
20
111.626840
70
0
0
VERTEX
8
Livello 1
10
98.459143
20
112.352160
70
0
0
VERTEX
8
Livello 1
10
97.177973
20
112.991245
70
0
0
VERTEX
8
Livello 1
10
95.921122
20
113.902449
70
0
0
VERTEX
8
Livello 1
10
94.811411
20
114.982431
70
0
0
VERTEX
8
Livello 1
10
93.971663
20
116.127850
70
0
0
VERTEX
8
Livello 1
10
93.376998
20
117.324369
70
0
0
VERTEX
8
Livello 1
10
92.827778
20
118.816246
70
0
0
VERTEX
8
Livello 1
10
91.813204
20
122.954741
70
0
0
VERTEX
8
Livello 1
10
90.822992
20
129.080671
70
0
0
VERTEX
8
Livello 1
10
89.752193
20
137.731370
70
0
0
VERTEX
8
Livello 1
10
88.351117
20
150.457699
70
0
0
VERTEX
8
Livello 1
10
87.707173
20
157.972000
70
0
0
VERTEX
8
Livello 1
10
87.515823
20
167.923639
70
0
0
VERTEX
8
Livello 1
10
87.365258
20
186.731680
70
0
0
VERTEX
8
Livello 1
10
87.302646
20
205.976549
70
0
0
VERTEX
8
Livello 1
10
87.375153
20
217.238671
70
0
0
VERTEX
8
Livello 1
10
87.375153
20
217.238671
70
0
0
SEQEND
8
Livello 1
0
POLYLINE
8
Livello 1
62
7
70
0
10
0.000000
20
0.000000
66
1
0
VERTEX
8
Livello 1
10
88.499903
20
156.252210
70
0
0
VERTEX
8
Livello 1
10
89.450863
20
146.594920
70
0
0
VERTEX
8
Livello 1
10
90.261623
20
138.657420
70
0
0
VERTEX
8
Livello 1
10
90.894840
20
132.587292
70
0
0
VERTEX
8
Livello 1
10
91.653307
20
127.076350
70
0
0
VERTEX
8
Livello 1
10
92.480186
20
122.486693
70
0
0
VERTEX
8
Livello 1
10
93.318643
20
119.180420
70
0
0
VERTEX
8
Livello 1
10
94.079164
20
117.244351
70
0
0
VERTEX
8
Livello 1
10
95.028857
20
115.649500
70
0
0
VERTEX
8
Livello 1
10
96.231006
20
114.362867
70
0
0
VERTEX
8
Livello 1
10
97.748896
20
113.351456
70
0
0
VERTEX
8
Livello 1
10
99.645811
20
112.582267
70
0
0
VERTEX
8
Livello 1
10
101.985036
20
112.022302
70
0
0
VERTEX
8
Livello 1
10
104.829854
20
111.638563
70
0
0
VERTEX
8
Livello 1
10
108.243550
20
111.398050
70
0
0
VERTEX
8
Livello 1
10
111.633313
20
111.353301
70
0
0
VERTEX
8
Livello 1
10
115.217102
20
111.501134
70
0
0
VERTEX
8
Livello 1
10
118.518071
20
111.809922
70
0
0
VERTEX
8
Livello 1
10
121.059370
20
112.248040
70
0
0
VERTEX
8
Livello 1
10
123.771898
20
113.175735
70
0
0
VERTEX
8
Livello 1
10
124.863360
20
113.791941
70
0
0
VERTEX
8
Livello 1
10
125.806566
20
114.536009
70
0
0
VERTEX
8
Livello 1
10
126.622724
20
115.427658
70
0
0
VERTEX
8
Livello 1
10
127.333044
20
116.486605
70
0
0
VERTEX
8
Livello 1
10
128.521000
20
119.185270
70
0
0
VERTEX
8
Livello 1
10
129.149460
20
121.443488
70
0
0
VERTEX
8
Livello 1
10
129.776614
20
124.483149
70
0
0
VERTEX
8
Livello 1
10
130.845050
20
131.910540
70
0
0
VERTEX
8
Livello 1
10
133.241080
20
155.326170
70
0
0
VERTEX
8
Livello 1
10
133.594651
20
161.708634
70
0
0
VERTEX
8
Livello 1
10
133.846811
20
170.330247
70
0
0
VERTEX
8
Livello 1
10
134.047183
20
191.381572
70
0
0
VERTEX
8
Livello 1
10
133.842753
20
212.661446
70
0
0
VERTEX
8
Livello 1
10
133.588912
20
221.568746
70
0
0
VERTEX
8
Livello 1
10
133.234080
20
228.351171
70
0
0
VERTEX
8
Livello 1
10
131.512441
20
244.996184
70
0
0
VERTEX
8
Livello 1
10
130.429704
20
253.870036
70
0
0
VERTEX
8
Livello 1
10
129.655960
20
259.175130
70
0
0
VERTEX
8
Livello 1
10
128.981187
20
262.178570
70
0
0
VERTEX
8
Livello 1
10
128.233963
20
264.632849
70
0
0
VERTEX
8
Livello 1
10
127.359368
20
266.601937
70
0
0
VERTEX
8
Livello 1
10
126.302481
20
268.149809
70
0
0
VERTEX
8
Livello 1
10
125.008383
20
269.340436
70
0
0
VERTEX
8
Livello 1
10
123.422154
20
270.237792
70
0
0
VERTEX
8
Livello 1
10
121.488873
20
270.905848
70
0
0
VERTEX
8
Livello 1
10
119.153620
20
271.408578
70
0
0
VERTEX
8
Livello 1
10
116.010595
20
271.650110
70
0
0
VERTEX
8
Livello 1
10
110.757100
20
271.738409
70
0
0
VERTEX
8
Livello 1
10
106.065351
20
271.659261
70
0
0
VERTEX
8
Livello 1
10
102.667640
20
271.385830
70
0
0
VERTEX
8
Livello 1
10
100.146478
20
270.861883
70
0
0
VERTEX
8
Livello 1
10
98.084373
20
270.031186
70
0
0
VERTEX
8
Livello 1
10
96.408660
20
268.990845
70
0
0
VERTEX
8
Livello 1
10
95.039422
20
267.562587
70
0
0
VERTEX
8
Livello 1
10
93.904156
20
265.458098
70
0
0
VERTEX
8
Livello 1
10
92.930359
20
262.389063
70
0
0
VERTEX
8
Livello 1
10
92.045528
20
258.067168
70
0
0
VERTEX
8
Livello 1
10
91.177158
20
252.204097
70
0
0
VERTEX
8
Livello 1
10
89.199793
20
234.701171
70
0
0
VERTEX
8
Livello 1
10
88.624993
20
227.655007
70
0
0
VERTEX
8
Livello 1
10
88.165303
20
219.884504
70
0
0
VERTEX
8
Livello 1
10
88.081614
20
208.158621
70
0
0
VERTEX
8
Livello 1
10
88.142892
20
187.291536
70
0
0
VERTEX
8
Livello 1
10
88.299028
20
166.812862
70
0
0
VERTEX
8
Livello 1
10
88.499913
20
156.252210
70
0
0
VERTEX
8
Livello 1
10
88.499903
20
156.252210
70
0
0
SEQEND
8
Livello 1
 0 
ENDSEC
 0 
EOF