  0
SECTION
  2
HEADER
  9
$ACADVER
  1
AC1014
  9
$HANDSEED
  5
FFFF
  9
$INSUNITS
 70
     0
  9
$MEASUREMENT
 70
     1
  0
ENDSEC
  0
SECTION
  2
TABLES
  0
TABLE
  2
VPORT
  5
8
330
0
100
AcDbSymbolTable
 70
     4
  0
VPORT
  5
2E
330
8
100
AcDbSymbolTableRecord
100
AcDbViewportTableRecord
  2
*ACTIVE
 70
     0
 10
0.0
 20
0.0
 11
1.0
 21
1.0
 12
210.0
 22
148.5
 13
0.0
 23
0.0
 14
10.0
 24
10.0
 15
10.0
 25
10.0
 16
0.0
 26
0.0
 36
1.0
 17
0.0
 27
0.0
 37
0.0
 40
341.0
 41
1.24
 42
50.0
 43
0.0
 44
0.0
 50
0.0
 51
0.0
 71
     0
 72
   100
 73
     1
 74
     3
 75
     0
 76
     0
 77
     0
 78
     0
  0
ENDTAB
  0
TABLE
  2
LTYPE
  5
5
330
0
100
AcDbSymbolTable
 70
     1
  0
LTYPE
  5
14
330
5
100
AcDbSymbolTableRecord
100
AcDbLinetypeTableRecord
  2
BYBLOCK
 70
     0
  3

 72
    65
 73
     0
 40
0.0
  0
LTYPE
  5
15
330
5
100
AcDbSymbolTableRecord
100
AcDbLinetypeTableRecord
  2
BYLAYER
 70
     0
  3

 72
    65
 73
     0
 40
0.0
  0
LTYPE
  5
16
330
5
100
AcDbSymbolTableRecord
100
AcDbLinetypeTableRecord
  2
CONTINUOUS
 70
     0
  3
Solid line
 72
    65
 73
     0
 40
0.0
  0
ENDTAB
  0
TABLE
  2
LAYER
  5
2
100
AcDbSymbolTable
 70
1
  0
LAYER
  5
50
100
AcDbSymbolTableRecord
100
AcDbLayerTableRecord
  2
0
 70
0
  6
CONTINUOUS
  0
ENDTAB
  0
TABLE
  2
STYLE
  5
3
330
0
100
AcDbSymbolTable
 70
     1
  0
STYLE
  5
11
330
3
100
AcDbSymbolTableRecord
100
AcDbTextStyleTableRecord
  2
STANDARD
 70
     0
 40
0.0
 41
1.0
 50
0.0
 71
     0
 42
2.5
  3
txt
  4

  0
ENDTAB
  0
TABLE
  2
VIEW
  5
6
330
0
100
AcDbSymbolTable
 70
     0
  0
ENDTAB
  0
TABLE
  2
UCS
  5
7
330
0
100
AcDbSymbolTable
 70
     0
  0
ENDTAB
  0
TABLE
  2
APPID
  5
9
330
0
100
AcDbSymbolTable
 70
     2
  0
APPID
  5
12
330
9
100
AcDbSymbolTableRecord
100
AcDbRegAppTableRecord
  2
ACAD
 70
     0
  0
ENDTAB
  0
TABLE
  2
DIMSTYLE
  5
A
330
0
100
AcDbSymbolTable
 70
     1
  0
DIMSTYLE
105
27
330
A
100
AcDbSymbolTableRecord
100
AcDbDimStyleTableRecord
  2
ISO-25
 70
     0
  3

  4

  5

  6

  7

 40
1.0
 41
2.5
 42
0.625
 43
3.75
 44
1.25
 45
0.0
 46
0.0
 47
0.0
 48
0.0
140
2.5
141
2.5
142
0.0
143
0.03937007874016
144
1.0
145
0.0
146
1.0
147
0.625
 71
     0
 72
     0
 73
     0
 74
     0
 75
     0
 76
     0
 77
     1
 78
     8
170
     0
171
     3
172
     1
173
     0
174
     0
175
     0
176
     0
177
     0
178
     0
270
     2
271
     2
272
     2
273
     2
274
     3
340
11
275
     0
280
     0
281
     0
282
     0
283
     0
284
     8
285
     0
286
     0
287
     3
288
     0
  0
ENDTAB
  0
TABLE
  2
BLOCK_RECORD
  5
1
330
0
100
AcDbSymbolTable
 70
     1
  0
BLOCK_RECORD
  5
1F
330
1
100
AcDbSymbolTableRecord
100
AcDbBlockTableRecord
  2
*MODEL_SPACE
  0
BLOCK_RECORD
  5
1B
330
1
100
AcDbSymbolTableRecord
100
AcDbBlockTableRecord
  2
*PAPER_SPACE
  0
ENDTAB
  0
ENDSEC
  0
SECTION
  2
BLOCKS
  0
BLOCK
  5
20
330
1F
100
AcDbEntity
  8
0
100
AcDbBlockBegin
  2
*MODEL_SPACE
 70
     0
 10
0.0
 20
0.0
 30
0.0
  3
*MODEL_SPACE
  1

  0
ENDBLK
  5
21
330
1F
100
AcDbEntity
  8
0
100
AcDbBlockEnd
  0
BLOCK
  5
1C
330
1B
100
AcDbEntity
 67
     1
  8
0
100
AcDbBlockBegin
  2
*PAPER_SPACE
  1

  0
ENDBLK
  5
1D
330
1B
100
AcDbEntity
 67
     1
  8
0
100
AcDbBlockEnd
  0
ENDSEC
  0
SECTION
  2
ENTITIES
  0
LWPOLYLINE
  5
100
100
AcDbEntity
  8
0
 62
7
100
AcDbPolyline
 90
208
 70
1
 10
186.693490
 20
707.809185
 30
0.0
 10
186.693490
 20
705.383965
 30
0.0
 10
178.927410
 20
701.548635
 30
0.0
 10
172.283430
 20
696.708795
 30
0.0
 10
162.145730
 20
684.483755
 30
0.0
 10
155.849250
 20
669.644125
 30
0.0
 10
152.962460
 20
653.125715
 30
0.0
 10
153.054260
 20
635.863915
 30
0.0
 10
155.693270
 20
618.794315
 30
0.0
 10
160.448200
 20
602.852515
 30
0.0
 10
166.887710
 20
588.973915
 30
0.0
 10
179.301910
 20
570.608165
 30
0.0
 10
187.210240
 20
562.855925
 30
0.0
 10
196.394380
 20
557.446255
 30
0.0
 10
196.394380
 20
552.595815
 30
0.0
 10
187.718920
 20
549.958465
 30
0.0
 10
180.262540
 20
546.057845
 30
0.0
 10
173.954280
 20
541.032185
 30
0.0
 10
168.722870
 20
535.019695
 30
0.0
 10
161.206510
 20
520.586665
 30
0.0
 10
157.144420
 20
503.864165
 30
0.0
 10
155.967540
 20
485.957535
 30
0.0
 10
157.106920
 20
467.972075
 30
0.0
 10
159.993510
 20
451.013105
 30
0.0
 10
164.058250
 20
436.185945
 30
0.0
 10
170.807850
 20
420.429775
 30
0.0
 10
176.992720
 20
404.658195
 30
0.0
 10
169.709410
 20
402.402405
 30
0.0
 10
163.742560
 20
399.073195
 30
0.0
 10
158.993720
 20
394.792005
 30
0.0
 10
155.364230
 20
389.679865
 30
0.0
 10
151.069300
 20
377.448045
 30
0.0
 10
150.069310
 20
363.347295
 30
0.0
 10
151.575820
 20
348.347365
 30
0.0
 10
154.800280
 20
333.418025
 30
0.0
 10
163.249880
 20
307.649895
 30
0.0
 10
168.413950
 20
295.662395
 30
0.0
 10
170.440130
 20
289.054645
 30
0.0
 10
170.525430
 20
283.397795
 30
0.0
 10
165.427810
 20
274.051475
 30
0.0
 10
162.700840
 20
269.415525
 30
0.0
 10
161.228880
 20
263.996135
 30
0.0
 10
161.446710
 20
255.607985
 30
0.0
 10
163.045200
 20
246.752295
 30
0.0
 10
168.100310
 20
230.043255
 30
0.0
 10
174.635130
 20
218.031705
 30
0.0
 10
183.416610
 20
209.429965
 30
0.0
 10
193.331390
 20
201.838215
 30
0.0
 10
203.265800
 20
192.856675
 30
0.0
 10
207.138630
 20
186.764475
 30
0.0
 10
209.636290
 20
179.431295
 30
0.0
 10
212.562440
 20
164.562615
 30
0.0
 10
214.331440
 20
144.023535
 30
0.0
 10
213.370910
 20
123.334075
 30
0.0
 10
209.884740
 20
103.631785
 30
0.0
 10
210.053290
 20
94.133385
 30
0.0
 10
214.179380
 20
84.530785
 30
0.0
 10
219.357690
 20
78.779585
 30
0.0
 10
226.201230
 20
73.110285
 30
0.0
 10
240.048230
 20
63.512285
 30
0.0
 10
251.555310
 20
58.291885
 30
0.0
 10
263.795580
 20
56.439985
 30
0.0
 10
288.552430
 20
57.853385
 30
0.0
 10
315.051490
 20
62.238085
 30
0.0
 10
328.395790
 20
66.171085
 30
0.0
 10
341.102820
 20
71.529985
 30
0.0
 10
352.647200
 20
78.514085
 30
0.0
 10
362.503670
 20
87.322385
 30
0.0
 10
370.146850
 20
98.153985
 30
0.0
 10
375.051480
 20
111.208085
 30
0.0
 10
376.177510
 20
120.470985
 30
0.0
 10
375.539840
 20
130.149635
 30
0.0
 10
370.355940
 20
149.999705
 30
0.0
 10
362.265230
 20
169.249315
 30
0.0
 10
354.033070
 20
186.389495
 30
0.0
 10
377.073740
 20
182.857385
 30
0.0
 10
400.112080
 20
179.113835
 30
0.0
 10
442.044140
 20
176.831535
 30
0.0
 10
464.194650
 20
177.273665
 30
0.0
 10
486.490140
 20
179.147405
 30
0.0
 10
508.447070
 20
182.734775
 30
0.0
 10
529.581930
 20
188.317805
 30
0.0
 10
549.411220
 20
196.178815
 30
0.0
 10
567.451420
 20
206.599525
 30
0.0
 10
578.198540
 20
216.020635
 30
0.0
 10
586.448890
 20
227.618035
 30
0.0
 10
591.655350
 20
236.855185
 30
0.0
 10
593.542080
 20
241.618455
 30
0.0
 10
594.128740
 20
247.019695
 30
0.0
 10
592.203970
 20
257.515205
 30
0.0
 10
589.010390
 20
267.195955
 30
0.0
 10
579.162940
 20
284.422615
 30
0.0
 10
565.278630
 20
299.317995
 30
0.0
 10
548.049720
 20
312.500325
 30
0.0
 10
548.049720
 20
314.925545
 30
0.0
 10
556.104300
 20
325.171235
 30
0.0
 10
561.339760
 20
335.417805
 30
0.0
 10
565.026240
 20
346.453215
 30
0.0
 10
564.434040
 20
350.130895
 30
0.0
 10
558.963210
 20
363.429745
 30
0.0
 10
557.659660
 20
368.255745
 30
0.0
 10
557.950480
 20
373.124055
 30
0.0
 10
559.367430
 20
382.831405
 30
0.0
 10
557.960850
 20
398.710585
 30
0.0
 10
554.516980
 20
414.359065
 30
0.0
 10
550.095050
 20
427.121165
 30
0.0
 10
544.288900
 20
439.528205
 30
0.0
 10
530.264930
 20
462.863265
 30
0.0
 10
518.943820
 20
479.882405
 30
0.0
 10
514.889780
 20
489.378615
 30
0.0
 10
514.096870
 20
499.241365
 30
0.0
 10
515.474610
 20
503.928755
 30
0.0
 10
517.954980
 20
507.833005
 30
0.0
 10
524.905590
 20
514.258575
 30
0.0
 10
532.312770
 20
520.451095
 30
0.0
 10
537.540550
 20
528.343805
 30
0.0
 10
538.702490
 20
533.758885
 30
0.0
 10
538.528430
 20
539.062645
 30
0.0
 10
534.852250
 20
548.889855
 30
0.0
 10
527.871880
 20
556.932265
 30
0.0
 10
518.947220
 20
562.296785
 30
0.0
 10
530.793420
 20
584.693895
 30
0.0
 10
536.070320
 20
596.222675
 30
0.0
 10
539.965730
 20
608.375665
 30
0.0
 10
542.555190
 20
622.952115
 30
0.0
 10
543.556020
 20
637.677575
 30
0.0
 10
543.060610
 20
652.430625
 30
0.0
 10
541.161310
 20
667.089725
 30
0.0
 10
533.520500
 20
695.641075
 30
0.0
 10
521.372490
 20
722.360505
 30
0.0
 10
514.213680
 20
734.932365
 30
0.0
 10
505.443950
 20
748.012025
 30
0.0
 10
494.937640
 20
759.179365
 30
0.0
 10
488.994010
 20
763.289555
 30
0.0
 10
482.569100
 20
766.014165
 30
0.0
 10
490.260180
 20
768.491905
 30
0.0
 10
508.030120
 20
775.450795
 30
0.0
 10
527.923970
 20
786.179635
 30
0.0
 10
536.181440
 20
792.735465
 30
0.0
 10
541.986780
 20
799.967055
 30
0.0
 10
546.571180
 20
812.703925
 30
0.0
 10
546.892140
 20
825.721835
 30
0.0
 10
543.850960
 20
838.594555
 30
0.0
 10
538.348920
 20
850.896465
 30
0.0
 10
524.547810
 20
873.883045
 30
0.0
 10
507.672240
 20
895.515465
 30
0.0
 10
497.961990
 20
905.085695
 30
0.0
 10
487.339660
 20
913.431525
 30
0.0
 10
475.757460
 20
920.257895
 30
0.0
 10
463.167530
 20
925.269515
 30
0.0
 10
456.259320
 20
926.628685
 30
0.0
 10
449.827660
 20
926.517075
 30
0.0
 10
437.923830
 20
923.093635
 30
0.0
 10
414.663330
 20
911.930805
 30
0.0
 10
376.979700
 20
899.289545
 30
0.0
 10
358.458950
 20
894.859935
 30
0.0
 10
339.481850
 20
892.125005
 30
0.0
 10
322.322630
 20
889.839275
 30
0.0
 10
310.048990
 20
889.265415
 30
0.0
 10
305.532310
 20
890.858605
 30
0.0
 10
301.982630
 20
894.365485
 30
0.0
 10
299.315040
 20
900.281295
 30
0.0
 10
297.444840
 20
909.101445
 30
0.0
 10
291.768060
 20
963.226865
 30
0.0
 10
288.553020
 20
983.389265
 30
0.0
 10
286.131630
 20
990.778565
 30
0.0
 10
282.893620
 20
996.004865
 30
0.0
 10
269.554120
 20
1006.672765
 30
0.0
 10
254.599450
 20
1015.002165
 30
0.0
 10
234.796110
 20
1021.546665
 30
0.0
 10
212.893940
 20
1025.251265
 30
0.0
 10
190.623950
 20
1026.458565
 30
0.0
 10
169.717150
 20
1025.511365
 30
0.0
 10
161.007530
 20
1023.621465
 30
0.0
 10
152.753570
 20
1019.692865
 30
0.0
 10
145.907970
 20
1013.823165
 30
0.0
 10
141.423090
 20
1006.109865
 30
0.0
 10
139.410740
 20
992.060665
 30
0.0
 10
141.138410
 20
976.878365
 30
0.0
 10
147.890270
 20
947.904865
 30
0.0
 10
152.586400
 20
925.579415
 30
0.0
 10
160.016370
 20
904.251105
 30
0.0
 10
146.105470
 20
906.152435
 30
0.0
 10
139.659490
 20
904.573675
 30
0.0
 10
134.551760
 20
899.400665
 30
0.0
 10
133.019040
 20
894.405535
 30
0.0
 10
132.907720
 20
888.544805
 30
0.0
 10
134.956000
 20
877.573785
 30
0.0
 10
143.433860
 20
849.344415
 30
0.0
 10
149.503490
 20
835.459815
 30
0.0
 10
157.591150
 20
824.219245
 30
0.0
 10
164.276260
 20
819.185635
 30
0.0
 10
172.089560
 20
814.495205
 30
0.0
 10
179.222000
 20
809.210095
 30
0.0
 10
183.864330
 20
802.392365
 30
0.0
 10
185.988090
 20
793.769415
 30
0.0
 10
186.755730
 20
784.200375
 30
0.0
 10
186.077620
 20
774.632795
 30
0.0
 10
183.864330
 20
766.014165
 30
0.0
 10
179.982570
 20
760.891815
 30
0.0
 10
175.376060
 20
756.313295
 30
0.0
 10
171.309460
 20
749.429405
 30
0.0
 10
168.804920
 20
742.332985
 30
0.0
 10
167.864320
 20
735.247565
 30
0.0
 10
168.489920
 20
728.396755
 30
0.0
 10
170.683570
 20
722.004075
 30
0.0
 10
174.447440
 20
716.292845
 30
0.0
 10
179.783390
 20
711.486775
 30
0.0
  0
ENDSEC
  0
SECTION
  2
OBJECTS
  0
DICTIONARY
  5
C
330
0
100
AcDbDictionary
  3
ACAD_GROUP
350
D
  3
ACAD_MLINESTYLE
350
17
  0
DICTIONARY
  5
D
330
C
100
AcDbDictionary
  0
DICTIONARY
  5
1A
330
C
100
AcDbDictionary
  0
DICTIONARY
  5
17
330
C
100
AcDbDictionary
  3
STANDARD
350
18
  0
DICTIONARY
  5
19
330
C
100
AcDbDictionary
  0
ENDSEC
  0
EOF
